<?xml version="1.0" encoding="utf-8"?>
<!-- Generator: Adobe Illustrator 19.1.0, SVG Export Plug-In . SVG Version: 6.00 Build 0)  -->
<svg version="1.1" id="Layer_1" xmlns="http://www.w3.org/2000/svg" xmlns:xlink="http://www.w3.org/1999/xlink" x="0px" y="0px"
	 viewBox="-599 384 25 25" style="enable-background:new -599 384 25 25;" xml:space="preserve">
<style type="text/css">
	.st0{fill:#FFFFFF;}
</style>
<path class="st0" d="M-586.8,398.1c1.1,0,1.9-0.9,1.9-1.9s-0.9-1.9-1.9-1.9s-1.9,0.9-1.9,1.9S-587.8,398.1-586.8,398.1z
	 M-586.8,400.5c-2.4,0-4.4-2-4.4-4.4s2-4.4,4.4-4.4c2.4,0,4.4,2,4.4,4.4C-582.4,398.6-584.4,400.5-586.8,400.5z M-586.8,402.9
	c3.7,0,6.8-3,6.8-6.8c0-3.7-3-6.8-6.8-6.8c-3.7,0-6.8,3-6.8,6.8C-593.5,399.9-590.5,402.9-586.8,402.9z M-586.8,405.3
	c-5.1,0-9.2-4.1-9.2-9.2s4.1-9.2,9.2-9.2c5.1,0,9.2,4.1,9.2,9.2S-581.7,405.3-586.8,405.3z M-586.8,407.8c6.4,0,11.6-5.2,11.6-11.6
	s-5.2-11.6-11.6-11.6c-6.4,0-11.6,5.2-11.6,11.6S-593.2,407.8-586.8,407.8z"/>
</svg>
