<?xml version="1.0" encoding="utf-8"?>
<!-- Generator: Adobe Illustrator 19.1.0, SVG Export Plug-In . SVG Version: 6.00 Build 0)  -->
<svg version="1.1" id="Layer_1" xmlns="http://www.w3.org/2000/svg" xmlns:xlink="http://www.w3.org/1999/xlink" x="0px" y="0px"
	 viewBox="-599 384 25 25" style="enable-background:new -599 384 25 25;" xml:space="preserve">
<style type="text/css">
	.st0{fill:#FFFFFF;}
</style>
<g id="young_man_1_">
	<path class="st0" d="M-580.1,392c-0.1-0.2-0.2-0.4-0.4-0.5c0.1-1.2,0.1-1.7-0.1-2.5c-0.3-2.5-2.9-4.3-5.9-4.3s-5.6,1.9-5.9,4.3
		c-0.1,0.8-0.1,1.3-0.1,2.5c-0.2,0.1-0.3,0.3-0.4,0.5c-0.3,0.5-0.3,1.2,0,1.9c0.3,0.8,0.7,1.4,1.2,1.7c0.7,2.4,2.8,4.1,5.2,4.1
		s4.6-1.7,5.2-4.1c0.5-0.3,0.9-0.9,1.2-1.7C-579.9,393.1-579.9,392.4-580.1,392z M-582,391.5c-0.1,0.6-0.5,2.8-0.7,3.5
		c-0.4,1.9-2,3.2-3.9,3.2c-1.8,0-3.4-1.3-3.9-3.2c0-0.7-0.5-2.9-0.5-3.5c-0.1-1.2-0.1-1.6,0-2.4c0.2-1.8,2.2-3.1,4.5-3.1
		s4.2,1.3,4.5,3.1C-581.9,389.9-581.9,390.3-582,391.5z"/>
	<path class="st0" d="M-581.3,391.6c0.1-1.2,0.1-1.8,0-2.6c-0.3-2.2-2.7-3.7-5.2-3.7l0,0c-2.5,0-4.9,1.5-5.2,3.7
		c-0.1,0.8-0.1,0.8,0,2c6.3,0,7.3-1.6,8.4-1.6C-583.4,389.5-583.4,391.6-581.3,391.6z"/>
	<path class="st0" d="M-580.7,400.1c2.1,0.5,4,1.5,4.7,2.6c1,1.8,1,2.6,1,2.6c0,0.9-5.2,3-11.5,3c-6.4,0-11.5-2.1-11.5-3
		c0,0,0-0.9,1-2.6c0.7-1.1,2.6-2.1,4.7-2.6C-592.3,400.1-587,404.1-580.7,400.1z"/>
</g>
</svg>
