<?xml version="1.0" encoding="utf-8"?>
<!-- Generator: Adobe Illustrator 19.1.0, SVG Export Plug-In . SVG Version: 6.00 Build 0)  -->
<svg version="1.1" id="Layer_1" xmlns="http://www.w3.org/2000/svg" xmlns:xlink="http://www.w3.org/1999/xlink" x="0px" y="0px"
	 viewBox="-599 384 25 25" style="enable-background:new -599 384 25 25;" xml:space="preserve">
<style type="text/css">
	.st0{fill:#FFFFFF;}
</style>
<g id="lens_11_">
	<path id="lens" class="st0" d="M-576.2,406.9c-0.5,0.6-1.3,0.8-2,0.8s-1.4-0.3-2-0.8l-4.4-4.4c-1.2,0.6-2.7,1-4.2,1
		c-5.1,0-9.2-4.1-9.2-9.2s4.1-9.1,9.2-9.1c5.1,0,9.2,4.1,9.2,9.1c0,1.5-0.4,2.9-1,4.2l4.4,4.4C-575.1,404-575.1,405.8-576.2,406.9z
		 M-588.7,399.3c2.7,0,4.9-2.2,4.9-4.9c0-2.7-2.2-4.9-4.9-4.9s-4.9,2.2-4.9,4.9C-593.7,397.1-591.5,399.3-588.7,399.3z"/>
</g>
</svg>
