<?xml version="1.0" encoding="utf-8"?>
<!-- Generator: Adobe Illustrator 19.1.0, SVG Export Plug-In . SVG Version: 6.00 Build 0)  -->
<svg version="1.1" id="Layer_1" xmlns="http://www.w3.org/2000/svg" xmlns:xlink="http://www.w3.org/1999/xlink" x="0px" y="0px"
	 viewBox="-599 384 25 25" style="enable-background:new -599 384 25 25;" xml:space="preserve">
<style type="text/css">
	.st0{fill:#FFFFFF;}
</style>
<g id="contrac_validate_2_">
	<path id="checked_3_1_" class="st0" d="M-577.1,389.6l-2.7,2.7c-0.4,0.4-1,0.4-1.4,0l-1.4-1.4c-0.4-0.4-0.4-1,0-1.4s1-0.4,1.4,0
		l0.7,0.7l2-2c0.4-0.4,1-0.4,1.4,0C-576.7,388.6-576.7,389.2-577.1,389.6z M-579.8,385.4c-2.6,0-4.8,2.1-4.8,4.8
		c0,2.6,2.1,4.8,4.8,4.8c2.6,0,4.8-2.1,4.8-4.8C-575,387.6-577.2,385.4-579.8,385.4z"/>
	<g>
		<path class="st0" d="M-581.8,402.5h-3.4v3.4l0,0l0,0h-1.1h-4.7h-2.8c-0.9,0-1.7-0.8-1.7-1.7v-15.8c0-0.4,0.2-0.9,0.5-1.2
			c0.3-0.3,0.7-0.5,1.2-0.5h9c0.4-0.5,0.8-1,1.3-1.4h-10.4l0,0c-0.8,0-1.5,0.3-2,0.8s-0.8,1.2-0.8,2v16.1c0,1.6,1.3,2.9,2.9,2.9h2.9
			h4.9h1.2c0.3,0,0.6-0.1,0.8-0.3l3.5-3.5c0.2-0.2,0.3-0.5,0.3-0.8v-0.1l0,0v-6.3c-0.5,0-0.9-0.2-1.3-0.3v6.7H-581.8z"/>
		<path class="st0" d="M-591.8,390h-1.9c-0.3,0-0.5,0.2-0.5,0.5v1.9c0,0.3,0.2,0.5,0.5,0.5h1.9c0.3,0,0.5-0.2,0.5-0.5v-1.9
			C-591.3,390.2-591.5,390-591.8,390z"/>
		<path class="st0" d="M-591.8,394.9h-1.9c-0.3,0-0.5,0.2-0.5,0.5v1.9c0,0.3,0.2,0.5,0.5,0.5h1.9c0.3,0,0.5-0.2,0.5-0.5v-1.9
			C-591.3,395.2-591.5,394.9-591.8,394.9z"/>
		<path class="st0" d="M-591.8,399.9h-1.9c-0.3,0-0.5,0.2-0.5,0.5v1.9c0,0.3,0.2,0.5,0.5,0.5h1.9c0.3,0,0.5-0.2,0.5-0.5v-1.9
			C-591.3,400.1-591.5,399.9-591.8,399.9z"/>
		<path class="st0" d="M-586,390.2h-3.4c-0.4,0-0.7,0.3-0.7,0.7c0,0.4,0.3,0.7,0.7,0.7h3.6C-585.9,391.2-586,390.7-586,390.2
			L-586,390.2z"/>
		<path class="st0" d="M-589.4,393c-0.4,0-0.7,0.3-0.7,0.7c0,0.4,0.3,0.7,0.7,0.7h5c-0.4-0.4-0.7-0.9-0.9-1.4L-589.4,393L-589.4,393
			z"/>
		<path class="st0" d="M-590.1,396.4c0,0.4,0.3,0.7,0.7,0.7h5.5c0.4,0,0.7-0.3,0.7-0.7c0-0.4-0.3-0.7-0.7-0.7h-5.5
			C-589.8,395.7-590.1,396-590.1,396.4z"/>
		<path class="st0" d="M-583.9,398.5h-5.5c-0.4,0-0.7,0.3-0.7,0.7c0,0.4,0.3,0.7,0.7,0.7h5.5c0.4,0,0.7-0.3,0.7-0.7
			S-583.5,398.5-583.9,398.5z"/>
		<path class="st0" d="M-586.6,401.2h-2.7c-0.4,0-0.7,0.3-0.7,0.7c0,0.4,0.3,0.7,0.7,0.7h2.7c0.4,0,0.7-0.3,0.7-0.7
			C-586,401.5-586.3,401.2-586.6,401.2z"/>
	</g>
</g>
</svg>
