<?xml version="1.0" encoding="utf-8"?>
<!-- Generator: Adobe Illustrator 19.1.0, SVG Export Plug-In . SVG Version: 6.00 Build 0)  -->
<svg version="1.1" id="Layer_1" xmlns="http://www.w3.org/2000/svg" xmlns:xlink="http://www.w3.org/1999/xlink" x="0px" y="0px"
	 viewBox="-599 384 25 25" style="enable-background:new -599 384 25 25;" xml:space="preserve">
<style type="text/css">
	.st0{fill:#FFFFFF;}
</style>
<path class="st0" d="M-575.9,392.6L-575.9,392.6l-13.4,2.5l-7.8-1.8v-2.7l7.8,1.8l13.5-2.6l0.3-0.1c0.2-0.1,0.3-0.3,0.3-0.5
	c0-0.3-0.2-0.5-0.5-0.6l-8.4-1.9c-0.1,0-0.2,0-0.3,0l-13.5,2.6c0,0,0,0-0.1,0l0,0h-0.1l0,0c0,0-0.1,0-0.1,0.1l0,0c0,0,0,0-0.1,0.1
	l0,0c0,0,0,0,0,0.1l0,0l0,0l0,0l0,0c0,0,0,0,0,0.1l0,0l0,0v3.9c0,0.3,0.2,0.5,0.5,0.6l8.4,1.9c0.1,0,0.2,0,0.3,0l13.5-2.6
	c0.3-0.1,0.6-0.4,0.5-0.7c0-0.2-0.2-0.3-0.3-0.4C-575.6,392.6-575.7,392.5-575.9,392.6z"/>
<g>
	<path class="st0" d="M-575.6,396c0.2-0.1,0.3-0.3,0.3-0.5c0-0.3-0.2-0.5-0.5-0.6l-13.6,2.5c-0.1,0-0.2,0-0.3,0l-8.3-1.9
		c0,0,0,0-0.1,0l0,0h-0.1l0,0c0,0-0.1,0-0.1,0.1l0,0c0,0,0,0-0.1,0.1l0,0c0,0,0,0,0,0.1l0,0c0,0,0,0,0,0.1l0,0l0,0c0,0,0,0,0,0.1
		l0,0l0,0v3.9c0,0.3,0.2,0.5,0.5,0.6l2.8,0.7V400l-2.1-0.5v-2.7l7.8,1.7l13.4-2.5C-575.9,396.1-575.7,396-575.6,396z M-575.9,398.8
		L-575.9,398.8l-13.4,2.5l-1.6-0.3v1.2l1.4,0.3c0.1,0,0.2,0,0.3,0l13.5-2.6c0.3-0.1,0.6-0.4,0.5-0.7c0-0.2-0.2-0.3-0.3-0.4
		C-575.6,398.8-575.7,398.8-575.9,398.8z"/>
	<polygon class="st0" points="-594.3,405 -593,404.3 -591.8,405.7 -591.8,399.8 -594.3,399.2 	"/>
</g>
</svg>
