<?xml version="1.0" encoding="utf-8"?>
<!-- Generator: Adobe Illustrator 19.1.0, SVG Export Plug-In . SVG Version: 6.00 Build 0)  -->
<svg version="1.1" id="Layer_1" xmlns="http://www.w3.org/2000/svg" xmlns:xlink="http://www.w3.org/1999/xlink" x="0px" y="0px"
	 viewBox="-599 384 25 25" style="enable-background:new -599 384 25 25;" xml:space="preserve">
<style type="text/css">
	.st0{fill:#FFFFFF;}
</style>
<g id="answer">
	<path id="answer_1_" class="st0" d="M-586.4,385.1c-6.3,0-11.4,5.1-11.4,11.4s5.1,11.4,11.4,11.4c6.3,0,11.4-5.1,11.4-11.4
		S-580.1,385.1-586.4,385.1z M-586.6,404.7c-1.1,0-1.9-0.9-1.9-1.9c0-1.1,0.9-1.9,1.9-1.9c1.1,0,1.9,0.9,1.9,1.9
		C-584.7,403.9-585.6,404.7-586.6,404.7z M-581.5,394.5c-0.3,0.5-0.9,1.1-1.9,1.9c-0.7,0.6-1.1,1-1.3,1.3c-0.2,0.3-0.3,0.5-0.3,1
		c0,0,0.2,1.5-1.7,1.5c-1.9-0.1-1.8-1.5-1.8-1.5s0.1-1.2,0.3-1.6c0.2-0.4,0.3-0.7,0.6-1.1c0.3-0.3,0.9-0.9,1.9-1.8
		c0.6-0.5,0.9-0.9,0.9-1.3s-0.1-0.7-0.4-1c-0.2-0.2-0.6-0.4-1.1-0.4s-1,0.2-1.3,0.5s-0.5,0.8-0.6,1.6c0,0-0.3,1.5-1.9,1.2
		c-1.6-0.2-1.7-1.7-1.7-1.7c0.2-1.3,0.7-2.4,1.5-3.2c0.9-0.8,2.2-1.3,4.1-1.3c1.4,0,2.6,0.3,3.4,0.9c1.2,0.8,1.8,1.8,1.8,3.2
		C-581.1,393.5-581.2,394-581.5,394.5z"/>
</g>
</svg>
