<?xml version="1.0" encoding="utf-8"?>
<!-- Generator: Adobe Illustrator 19.1.0, SVG Export Plug-In . SVG Version: 6.00 Build 0)  -->
<svg version="1.1" id="Layer_1" xmlns="http://www.w3.org/2000/svg" xmlns:xlink="http://www.w3.org/1999/xlink" x="0px" y="0px"
	 viewBox="-599 384 25 25" style="enable-background:new -599 384 25 25;" xml:space="preserve">
<style type="text/css">
	.st0{fill:#FFFFFF;}
</style>
<path class="st0" d="M-577,388l-2.9-3.3c0,0-3.4,3-6.9,0c-3.6,3-6.9,0-6.9,0l-2.9,3.3c0,0,2.3,1.6,1,5.2c-1.5,4.1-1.9,10.1,8.8,14.5
	c10.8-4.3,10.4-10.3,8.8-14.5C-579.3,389.5-577,388-577,388z M-581.4,394.8l-5.4,5.4c-0.7,0.7-2,0.7-2.7,0l-2.7-2.7
	c-0.7-0.7-0.7-2,0-2.7s2-0.7,2.7,0l1.3,1.3l4.1-4.1c0.7-0.7,2-0.7,2.7,0C-580.6,392.9-580.6,394.1-581.4,394.8z"/>
</svg>
