<?xml version="1.0" encoding="utf-8"?>
<!-- Generator: Adobe Illustrator 19.1.0, SVG Export Plug-In . SVG Version: 6.00 Build 0)  -->
<svg version="1.1" id="Layer_1" xmlns="http://www.w3.org/2000/svg" xmlns:xlink="http://www.w3.org/1999/xlink" x="0px" y="0px"
	 viewBox="-599 384 25 25" style="enable-background:new -599 384 25 25;" xml:space="preserve">
<style type="text/css">
	.st0{fill:#FFFFFF;}
	.st1{fill:#5B5B5B;}
</style>
<g>
	<g id="like_3_">
		<g>
			<g>
				<path class="st0" d="M-586.4,386.2c-0.4,0-0.7,0.2-1,0.4c-0.3,0.3-0.4,0.6-0.4,1c0,3-0.3,5.3-1,6.7l-0.1,0.3l-0.3,0.2
					c-0.8,0.4-1.8,1.4-1.8,3.1v4.7c0,2.5,1.2,3.7,3.7,3.7h6.3c2.5,0,5.3-2.8,5.3-5.3v-3.9c0-2-0.6-3-3.7-3h-5.7v-6.5
					C-585,386.9-585.6,386.2-586.4,386.2z"/>
				<path class="st1" d="M-580.9,406.7h-6.3c-2.7,0-4.1-1.4-4.1-4.1v-4.7c0-2,1.2-3,2-3.4l0.2-0.1l0.1-0.2c0.7-1.4,1-3.6,0.9-6.6
					c0-0.5,0.2-0.9,0.5-1.2c0.3-0.3,0.8-0.5,1.3-0.5c1,0,1.8,0.8,1.8,1.8v6.1h5.3c3.4,0,4.1,1.2,4.1,3.3v3.9
					C-575.2,403.7-578.1,406.7-580.9,406.7z M-586.4,386.6c-0.3,0-0.5,0.1-0.7,0.3c-0.2,0.2-0.3,0.4-0.3,0.7c0,3-0.3,5.4-1,6.9
					l-0.2,0.4l-0.4,0.2c-0.7,0.4-1.6,1.2-1.6,2.8v4.7c0,2.3,1.1,3.4,3.4,3.4h6.3c2.3,0,4.9-2.7,4.9-4.9v-3.9c0-1.6-0.2-2.6-3.4-2.6
					h-6.1v-6.9C-585.4,387.1-585.8,386.6-586.4,386.6z"/>
			</g>
		</g>
		<g>
			<path class="st0" d="M-592.6,405.9c0,0.7-0.6,1.3-1.3,1.3h-2c-0.7,0-1.3-0.6-1.3-1.3v-10.7c0-0.7,0.6-1.3,1.3-1.3h2
				c0.7,0,1.3,0.6,1.3,1.3V405.9z M-594.9,403.2c-0.7,0-1.3,0.6-1.3,1.3c0,0.7,0.6,1.3,1.3,1.3s1.3-0.6,1.3-1.3
				C-593.6,403.8-594.1,403.2-594.9,403.2z"/>
			<path class="st1" d="M-593.9,407.6h-2c-0.9,0-1.7-0.8-1.7-1.7v-10.7c0-0.9,0.8-1.7,1.7-1.7h2c0.9,0,1.7,0.8,1.7,1.7v10.7
				C-592.2,406.8-593,407.6-593.9,407.6z M-595.9,394.3c-0.5,0-0.9,0.4-0.9,0.9v10.7c0,0.5,0.4,0.9,0.9,0.9h2c0.5,0,0.9-0.4,0.9-0.9
				v-10.7c0-0.5-0.4-0.9-0.9-0.9H-595.9z M-594.9,406.2c-0.9,0-1.7-0.8-1.7-1.7c0-0.9,0.8-1.7,1.7-1.7s1.7,0.8,1.7,1.7
				C-593.2,405.5-593.9,406.2-594.9,406.2z M-594.9,403.6c-0.5,0-0.9,0.4-0.9,0.9s0.4,0.9,0.9,0.9s0.9-0.4,0.9-0.9
				C-593.9,404-594.4,403.6-594.9,403.6z"/>
		</g>
	</g>
</g>
</svg>
