<?xml version="1.0" encoding="utf-8"?>
<!-- Generator: Adobe Illustrator 19.1.0, SVG Export Plug-In . SVG Version: 6.00 Build 0)  -->
<svg version="1.1" id="Layer_1" xmlns="http://www.w3.org/2000/svg" xmlns:xlink="http://www.w3.org/1999/xlink" x="0px" y="0px"
	 viewBox="-599 384 25 25" style="enable-background:new -599 384 25 25;" xml:space="preserve">
<style type="text/css">
	.st0{fill:#FFFFFF;}
</style>
<g id="close_4_">
	<path id="close_5_" class="st0" d="M-592,387c-0.8,0.5-1.5,1-2.1,1.7c-4.1,4.2-4.1,11,0.2,15.2c3.7,3.6,9.3,4,13.4,1.3
		c0.6-0.4,1.2-0.9,1.8-1.4c4.1-4.2,4.1-11-0.2-15.2C-582.5,385-587.9,384.5-592,387z M-579.4,396.1c0,1.3-1,2.3-2.3,2.3l-9.4,0.1
		c-1.3,0-2.3-1-2.3-2.3s1-2.3,2.3-2.3l9.4-0.1C-580.5,393.8-579.5,394.8-579.4,396.1z"/>
</g>
</svg>
