<?xml version="1.0" encoding="utf-8"?>
<!-- Generator: Adobe Illustrator 19.1.0, SVG Export Plug-In . SVG Version: 6.00 Build 0)  -->
<svg version="1.1" id="Layer_1" xmlns="http://www.w3.org/2000/svg" xmlns:xlink="http://www.w3.org/1999/xlink" x="0px" y="0px"
	 viewBox="-599 384 25 25" style="enable-background:new -599 384 25 25;" xml:space="preserve">
<style type="text/css">
	.st0{fill:#FFFFFF;}
</style>
<path class="st0" d="M-576.3,392.1c-1.5-7.2-8.8-6.9-8.8-6.9c-5-0.2-7.5,2.5-7.5,2.5c-1.4,1.1-3.2,5.6-2.3,6.4
	c0.9,0.7,0.5,1.3,0.5,1.3s-0.5,1.4-1.3,2.3c-0.9,0.9-0.8,1.3-0.8,1.3c0,1.4,1.9,0.9,1.9,1.2c0.1,0.2-0.4,0.8-0.5,1.1
	c0,0.3,0.6,0.6,0.6,0.6l-0.1,0.8c0,0,0.9,0.6,0.2,1c-0.7,0.4-0.6,1.3-0.6,1.3c0.1,1.6,3.9,0.9,3.9,0.9c2.1-0.1,2.7,1.9,2.7,1.9h9.9
	c-0.2-1.3-0.3-1.9-0.5-2.9c-0.4-3.5,1-4.6,2.1-6.6C-575.7,396.2-576.3,392.1-576.3,392.1z M-585.2,403.1c-0.9,0-1.7-0.8-1.7-1.7
	c0-0.9,0.8-1.7,1.7-1.7c1,0,1.7,0.8,1.7,1.7S-584.3,403.1-585.2,403.1z M-580.6,393.9c-0.3,0.5-0.8,1-1.7,1.7
	c-0.6,0.5-1,0.9-1.2,1.2c-0.2,0.3-0.3,0.5-0.3,0.9c0,0,0.2,1.4-1.5,1.3s-1.6-1.3-1.6-1.3s0.1-1.1,0.2-1.4c0.1-0.3,0.3-0.7,0.6-1
	s0.8-0.8,1.7-1.6c0.5-0.4,0.8-0.8,0.8-1.2c0-0.4-0.1-0.7-0.3-0.9c-0.2-0.2-0.6-0.3-1-0.3c-0.5,0-0.9,0.2-1.2,0.5
	c-0.3,0.3-0.5,0.8-0.6,1.4c0,0-0.3,1.3-1.7,1.1c-1.5-0.2-1.5-1.5-1.5-1.5c0.1-1.2,0.6-2.1,1.3-2.9c0.8-0.8,2-1.1,3.6-1.1
	c1.3,0,2.3,0.3,3.1,0.8c1.1,0.7,1.6,1.6,1.6,2.8C-580.2,393-580.4,393.5-580.6,393.9z"/>
</svg>
