<?xml version="1.0" encoding="utf-8"?>
<!-- Generator: Adobe Illustrator 19.1.0, SVG Export Plug-In . SVG Version: 6.00 Build 0)  -->
<svg version="1.1" id="Layer_1" xmlns="http://www.w3.org/2000/svg" xmlns:xlink="http://www.w3.org/1999/xlink" x="0px" y="0px"
	 viewBox="-599 384 25 25" style="enable-background:new -599 384 25 25;" xml:space="preserve">
<style type="text/css">
	.st0{fill:#FFFFFF;}
</style>
<g id="close_2_">
	<path id="close_3_" class="st0" d="M-592,386.9c-0.8,0.5-1.6,1-2.3,1.7c-4.4,4.4-4.5,11.5-0.2,15.9c3.8,3.9,9.7,4.4,14.1,1.6
		c0.7-0.4,1.3-0.9,1.9-1.5c4.4-4.4,4.5-11.5,0.2-15.9C-582,385-587.7,384.4-592,386.9z M-579,396.7c0,1.3-1.1,2.4-2.5,2.4h-2.5v2.5
		c0,1.3-1.1,2.4-2.5,2.4c-1.3,0-2.4-1.1-2.4-2.5V399h-2.5c-1.3,0-2.4-1.1-2.4-2.5c0-1.3,1.1-2.4,2.5-2.4h2.5v-2.5
		c0-1.3,1.1-2.4,2.5-2.4c1.3,0,2.4,1.1,2.4,2.5v2.5h2.5C-580.1,394.3-579,395.4-579,396.7z"/>
</g>
</svg>
