<?xml version="1.0" encoding="utf-8"?>
<!-- Generator: Adobe Illustrator 19.1.0, SVG Export Plug-In . SVG Version: 6.00 Build 0)  -->
<svg version="1.1" id="Layer_1" xmlns="http://www.w3.org/2000/svg" xmlns:xlink="http://www.w3.org/1999/xlink" x="0px" y="0px"
	 viewBox="-599 384 25 25" style="enable-background:new -599 384 25 25;" xml:space="preserve">
<style type="text/css">
	.st0{fill:#FFFFFF;}
	.st1{fill:#5B5B5B;}
</style>
<g>
	<g>
		<g>
			<path class="st0" d="M-591.7,395.3c0.6,2.3,2.6,3.9,5,3.9c2.3,0,4.3-1.6,5-3.9c0.4-0.3,0.9-0.8,1.1-1.6c0.2-0.7,0.2-1.3,0-1.8
				c-0.1-0.2-0.2-0.3-0.4-0.5c0.1-1.1,0.1-1.6-0.1-2.4c-0.3-2.3-2.7-4.1-5.6-4.1c-2.9,0-5.3,1.8-5.6,4.1c-0.1,0.8-0.1,1.3-0.1,2.4
				c-0.2,0.1-0.3,0.3-0.4,0.5c-0.2,0.5-0.3,1.1,0,1.8C-592.5,394.5-592.1,395-591.7,395.3z M-583.1,394.8c-0.4,1.8-1.9,3.1-3.7,3.1
				c-1.7,0-3.3-1.3-3.7-3.1c-0.2-0.7-0.6-2.8-0.6-3.4c0-0.1,0-0.3,0-0.4c5.4-0.1,6.3-1.5,7.3-1.5c0,0,0,1.5,1.3,1.9
				C-582.5,392.1-582.9,394.1-583.1,394.8z"/>
			<path class="st1" d="M-586.7,399.6c-2.4,0-4.6-1.7-5.3-4.1c-0.5-0.4-0.9-1-1.1-1.7c-0.3-0.8-0.3-1.5,0-2.1
				c0.1-0.2,0.2-0.3,0.3-0.4c0-1,0-1.5,0.1-2.3c0.3-2.5,2.9-4.4,6-4.4s5.6,1.9,6,4.4c0.1,0.8,0.1,1.3,0.1,2.3
				c0.1,0.1,0.3,0.3,0.3,0.4c0.3,0.6,0.3,1.3,0,2.1c-0.2,0.7-0.6,1.3-1.2,1.7C-582.2,397.9-584.3,399.6-586.7,399.6z M-586.7,385.3
				c-2.7,0-5,1.6-5.2,3.8c-0.1,0.8-0.1,1.2,0,2.3v0.2l-0.2,0.1c-0.1,0.1-0.2,0.2-0.3,0.3c-0.2,0.4-0.2,0.9,0,1.5s0.6,1.1,1,1.5
				l0.1,0.1v0.1c0.6,2.1,2.5,3.6,4.6,3.6c2.2,0,4-1.5,4.6-3.6v-0.1l0.1-0.1c0.4-0.3,0.8-0.8,1-1.5c0.2-0.6,0.2-1.1,0-1.5
				c-0.1-0.1-0.2-0.2-0.3-0.3l-0.2-0.1v-0.2c0.1-1.1,0.1-1.6-0.1-2.3C-581.8,386.9-584,385.3-586.7,385.3z M-586.7,398.2
				c-1.9,0-3.6-1.4-4-3.3c-0.1-0.7-0.6-2.8-0.6-3.4v-0.8h0.4c3.7-0.1,5.2-0.7,6.2-1.1c0.4-0.2,0.8-0.3,1.1-0.3h0.4v0.4
				c0,0,0,1.2,1,1.5l0.3,0.1v0.3c-0.1,0.7-0.5,2.9-0.6,3.4l0,0C-583.2,396.9-584.8,398.2-586.7,398.2z M-590.7,391.4
				c0.1,0.6,0.4,2.5,0.6,3.3c0.4,1.6,1.7,2.8,3.3,2.8s2.9-1.1,3.3-2.8c0.2-0.7,0.5-2.2,0.6-3c-0.8-0.4-1.1-1.1-1.2-1.7
				c-0.1,0-0.3,0.1-0.5,0.2C-585.5,390.6-587.1,391.3-590.7,391.4z"/>
		</g>
		<g>
			<path class="st0" d="M-576.8,402.2c-0.6-1.1-2.5-2-4.5-2.5c-6,3.7-11,0-11,0c-2,0.5-3.8,1.4-4.5,2.5c-1,1.7-1,2.5-1,2.5
				c0,0.8,4.9,2.9,11,2.9c6,0,11-2,11-2.9C-575.8,404.6-575.8,403.8-576.8,402.2z"/>
			<path class="st1" d="M-586.7,407.9c-5.6,0-11.3-1.9-11.3-3.2c0-0.1,0-1,1-2.7c0.6-1.1,2.4-2.1,4.7-2.7h0.2l0.1,0.1
				c0.2,0.1,4.9,3.5,10.5,0l0.1-0.1h0.2c2.3,0.6,4.1,1.6,4.7,2.7l0,0c1,1.7,1,2.6,1,2.7C-575.4,406-581.1,407.9-586.7,407.9z
				 M-592.3,400.1c-2,0.5-3.6,1.4-4.1,2.3c-0.9,1.5-0.9,2.3-0.9,2.3c0.3,0.6,4.8,2.5,10.6,2.5s10.3-1.9,10.6-2.5
				c0,0-0.1-0.8-0.9-2.3l0,0c-0.5-0.9-2.1-1.8-4.1-2.3C-586.7,403.4-591.4,400.7-592.3,400.1z"/>
		</g>
	</g>
</g>
</svg>
