<?xml version="1.0" encoding="utf-8"?>
<!-- Generator: Adobe Illustrator 19.1.0, SVG Export Plug-In . SVG Version: 6.00 Build 0)  -->
<svg version="1.1" id="Layer_1" xmlns="http://www.w3.org/2000/svg" xmlns:xlink="http://www.w3.org/1999/xlink" x="0px" y="0px"
	 viewBox="-599 384 25 25" style="enable-background:new -599 384 25 25;" xml:space="preserve">
<style type="text/css">
	.st0{fill:#FFFFFF;}
</style>
<g id="gear">
	<path id="gear_2_" class="st0" d="M-575.1,396v1.4c-0.1,0.8-0.7,1.4-1.5,1.5h-0.5h-0.8h-0.3c-0.1,0-0.3,0.1-0.4,0.1
		c-0.2,0.1-0.3,0.2-0.5,0.3c-0.5,0.5-0.6,1.4-0.1,2l0,0l0,0l0.2,0.2l0.6,0.6l0.3,0.3c0.5,0.6,0.5,1.5,0,2.1l-1,1
		c-0.6,0.5-1.5,0.5-2.1,0l-0.3-0.3l-0.6-0.6l-0.2-0.2l-0.1-0.1c-0.2-0.1-0.4-0.2-0.6-0.2l0,0h-0.1l0,0l0,0c-0.1,0-0.3,0-0.4,0.1l0,0
		c-0.1,0-0.2,0-0.2,0.1l0,0l0,0l0,0c0,0-0.1,0-0.1,0.1l0,0c-0.1,0.1-0.2,0.2-0.3,0.2c0,0,0,0,0,0.1l0,0c-0.2,0.2-0.3,0.5-0.3,0.7
		l0,0l0,0v0.3v0.8v0.5c-0.1,0.8-0.7,1.4-1.5,1.5h-1.4c-0.8-0.1-1.4-0.7-1.5-1.5v-0.5v-0.8l0,0v-0.4l0,0c0-0.3-0.2-0.6-0.4-0.9
		c-0.3-0.3-0.7-0.5-1.1-0.4h-0.1l0,0h-0.1l0,0h-0.1l0,0l0,0l0,0h-0.1l0,0h-0.1c0,0,0,0-0.1,0l0,0c0,0-0.1,0-0.1,0.1l0,0l0,0
		l-0.8,0.8l-0.3,0.3c-0.6,0.5-1.5,0.5-2.1,0l-1-1c-0.5-0.6-0.5-1.5,0-2.1l0.3-0.3l0.6-0.6l0,0l0.2-0.2l0,0c0.2-0.2,0.3-0.6,0.3-0.9
		l0,0c0-0.7-0.4-1.2-1.1-1.4h-0.1l0,0h-0.1h-1.1h-0.5c-0.8-0.1-1.4-0.7-1.5-1.5v-1.4c0.1-0.8,0.7-1.4,1.5-1.5h0.5h0.8h0.4
		c0.3,0,0.6-0.2,0.9-0.4l0,0l0,0l0,0c0.3-0.3,0.5-0.8,0.4-1.2l0,0c0-0.1,0-0.1,0-0.1l0,0v-0.1l0,0v-0.1l0,0v-0.1c0,0,0,0,0-0.1
		c0,0,0,0,0-0.1c0,0,0,0,0-0.1c0,0,0,0,0-0.1l0,0l0,0l0,0l-0.8-0.8l-0.3-0.3c-0.5-0.6-0.5-1.5,0-2.1l1-1c0.6-0.5,1.5-0.5,2.1,0
		l0.3,0.3l0.6,0.6l0.2,0.2c0.2,0.2,0.6,0.3,0.9,0.3c0.4,0,0.7-0.1,1-0.4c0.1-0.1,0.3-0.3,0.4-0.5l0,0c0,0,0-0.1,0.1-0.1l0,0V388l0,0
		v-0.1l0,0v-0.1l0,0l0,0l0,0v-0.3v-0.8v-0.5c0.1-0.8,0.7-1.4,1.5-1.5h1.4c0.8,0.1,1.4,0.7,1.5,1.5v0.5v0.8v0.4
		c0,0.3,0.2,0.6,0.4,0.9c0.1,0.1,0.3,0.2,0.5,0.3c0.5,0.2,1.1,0.1,1.5-0.2l0,0l0,0l0.8-0.8l0.3-0.3c0.6-0.5,1.5-0.5,2.1,0l1,1
		c0.5,0.6,0.5,1.5,0,2.1l-0.3,0.3l-0.6,0.6l-0.3,0.2c-0.1,0.1-0.2,0.3-0.2,0.5c0,0.1-0.1,0.3-0.1,0.5c0,0.5,0.3,1,0.7,1.2l0,0
		c0.2,0.1,0.4,0.2,0.6,0.2l0,0l0,0h1.1h0.5C-575.8,394.6-575.2,395.2-575.1,396z M-586,393c-2.1,0-3.7,1.7-3.7,3.7
		c0,2.1,1.7,3.7,3.7,3.7c2.1,0,3.7-1.7,3.7-3.7S-584,393-586,393z"/>
</g>
</svg>
