<?xml version="1.0" encoding="utf-8"?>
<!-- Generator: Adobe Illustrator 19.1.0, SVG Export Plug-In . SVG Version: 6.00 Build 0)  -->
<svg version="1.1" id="Layer_1" xmlns="http://www.w3.org/2000/svg" xmlns:xlink="http://www.w3.org/1999/xlink" x="0px" y="0px"
	 viewBox="-599 384 25 25" style="enable-background:new -599 384 25 25;" xml:space="preserve">
<style type="text/css">
	.st0{fill:#FFFFFF;}
</style>
<g id="down_2_1_">
	<path id="down_2" class="st0" d="M-598.3,396.2c0-6.6,5.3-11.9,11.9-11.9c6.6,0,11.9,5.3,11.9,11.9s-5.3,11.9-11.9,11.9
		C-593,408.1-598.3,402.8-598.3,396.2z M-586.3,402.2l4.5-4.5c0.4-0.4,0.7-1,0.7-1.6s-0.2-1.1-0.7-1.6l-4.5-4.5
		c-0.4-0.4-1-0.7-1.6-0.7c-0.6,0-1.1,0.2-1.6,0.7c-0.4,0.4-0.7,1-0.7,1.6s0.2,1.1,0.7,1.6l2.9,2.9l-2.9,2.9c-0.4,0.4-0.7,1-0.7,1.6
		s0.2,1.1,0.7,1.6c0.4,0.4,1,0.7,1.6,0.7C-587.3,402.9-586.7,402.7-586.3,402.2z"/>
</g>
</svg>
