<?xml version="1.0" encoding="utf-8"?>
<!-- Generator: Adobe Illustrator 19.1.0, SVG Export Plug-In . SVG Version: 6.00 Build 0)  -->
<svg version="1.1" id="Layer_1" xmlns="http://www.w3.org/2000/svg" xmlns:xlink="http://www.w3.org/1999/xlink" x="0px" y="0px"
	 viewBox="-599 384 25 25" style="enable-background:new -599 384 25 25;" xml:space="preserve">
<style type="text/css">
	.st0{fill:#FFFFFF;}
</style>
<path class="st0" d="M-580.4,407.5h-12.3c-2.3,0-4.2-1.9-4.2-4.2v-10.9h20.7v10.9C-576.1,405.6-578,407.5-580.4,407.5z
	 M-595.8,393.4v9.8c0,1.7,1.4,3.1,3.1,3.1h12.3c1.7,0,3.1-1.4,3.1-3.1v-9.8H-595.8z"/>
<path class="st0" d="M-584.6,402.4c0,0.8-0.6,1.4-1.4,1.4c-0.8,0-1.4-0.6-1.4-1.4V400c-0.6,0.3-1.4,0.1-1.8-0.5
	c-0.3-0.5-0.3-1.3,0.2-1.7l2-2c0.8-0.8,2.3-0.3,2.4,0.9l0,0v0.1L-584.6,402.4L-584.6,402.4z"/>
<path class="st0" d="M-580,388.1h-0.6v-1.4c0-0.8-0.7-1.4-1.5-1.4s-1.5,0.6-1.5,1.4v1.4h-5.9v-1.4c0-0.8-0.7-1.4-1.5-1.4
	c-0.8,0-1.5,0.6-1.5,1.4v1.4h-0.6c-2.1,0-3.9,1.7-3.9,3.7v1.5h20.7v-1.5C-576.1,389.8-577.9,388.1-580,388.1z"/>
</svg>
