<?xml version="1.0" encoding="utf-8"?>
<!-- Generator: Adobe Illustrator 19.1.0, SVG Export Plug-In . SVG Version: 6.00 Build 0)  -->
<svg version="1.1" id="Layer_1" xmlns="http://www.w3.org/2000/svg" xmlns:xlink="http://www.w3.org/1999/xlink" x="0px" y="0px"
	 viewBox="-599 384 25 25" style="enable-background:new -599 384 25 25;" xml:space="preserve">
<style type="text/css">
	.st0{fill:#FFFFFF;}
</style>
<g id="_x31_">
	<path class="st0" d="M-578.3,392.4v-3.7c0-0.3-0.2-0.5-0.5-0.5h-2.7c-0.3,0-0.5,0.2-0.5,0.5v1l-3.7-2.6c-0.2-0.2-0.5-0.2-0.7-0.2
		c-0.2,0-0.5,0.1-0.7,0.2l-10.5,7.5v2.8h1.8v-1.5l9.4-6.7l9.3,6.7v1.5h1.8v-2.8L-578.3,392.4z"/>
	<path class="st0" d="M-577.1,394.9l-9-6.3c-0.1-0.1-0.3-0.1-0.5-0.1c-0.2,0-0.3,0-0.5,0.1l-9,6.4v10.7c0,0.3,0.3,0.6,0.6,0.6h17.7
		c0.3,0,0.6-0.3,0.6-0.6L-577.1,394.9z M-594.5,404.8v-9.1l8-5.7l8,5.6v9.1L-594.5,404.8z"/>
	<rect x="-592" y="397.3" class="st0" width="4.6" height="7.8"/>
	<rect x="-585.4" y="397.3" class="st0" width="4.6" height="4.6"/>
</g>
</svg>
