<?xml version="1.0" encoding="utf-8"?>
<!-- Generator: Adobe Illustrator 19.1.0, SVG Export Plug-In . SVG Version: 6.00 Build 0)  -->
<svg version="1.1" id="Layer_1" xmlns="http://www.w3.org/2000/svg" xmlns:xlink="http://www.w3.org/1999/xlink" x="0px" y="0px"
	 viewBox="-599 384 25 25" style="enable-background:new -599 384 25 25;" xml:space="preserve">
<style type="text/css">
	.st0{fill:#FFFFFF;}
</style>
<g>
	<path class="st0" d="M-583.3,401.4l-1.6-2.9c0-0.1,0-0.2,0-0.3c0.1-0.1,0.2-0.1,0.3-0.1l3.3,0.5l2.3-2.4c0.1-0.1,0.2-0.1,0.3-0.1
		c0.1,0,0.2,0.1,0.2,0.2l0.5,3.3l3,1.4c0.1,0,0.2,0.1,0.2,0.2s-0.1,0.2-0.1,0.2l-2.9,1.5l-0.4,3.3c0,0.1-0.1,0.2-0.2,0.2l0,0
		c-0.1,0-0.2,0-0.2-0.1l-2.3-2.3l-3.2,0.6l0,0c-0.1,0-0.3-0.1-0.3-0.2s0-0.2,0.1-0.2L-583.3,401.4z"/>
	<path class="st0" d="M-598,394c0,0.1,0.1,0.1,0.2,0.1c0.1,0,10.3-0.4,12.3,7.1l0.5-0.9l-1-1.7c-0.2-0.3-0.2-0.7,0.1-1
		c0.2-0.2,0.4-0.4,0.7-0.4c0.1,0,0.2,0,0.3,0l3,0.3l1.4-1.4c0.2-0.2,0.4-0.3,0.6-0.3c0.1,0,0.2,0,0.3,0c-0.4-2.3-3.1-7.9-10.6-9.1
		c-0.1,0-0.1,0-0.2,0.1c0,0.1-0.1,0.1,0,0.2l0.8,2c-1-0.5-3.5-1.5-6-0.5h-0.1c-0.1,0-0.1,0.1-0.1,0.2s0,0.1,0.1,0.2
		c0,0,2.1,1.1,3,2.2c-0.9,0.2-3.8,1.1-5.1,3C-598,393.9-598,393.9-598,394z M-586.5,390.9c0.1-0.2,0.4-0.2,0.5-0.1
		c0.1,0.1,2.3,1.6,2.8,4.9c0,0.2-0.1,0.4-0.3,0.4l0,0c-0.2,0-0.4-0.1-0.4-0.3c-0.4-2.9-2.4-4.4-2.4-4.4
		C-586.7,391.4-586.7,391-586.5,390.9z M-592.2,392.2c0-0.2,0.2-0.4,0.4-0.3c0.2,0,3.7,0.5,4.8,2.6c0.1,0.2,0,0.4-0.2,0.5h-0.1
		c-0.2,0-0.3-0.1-0.4-0.2c-0.9-1.7-4.2-2.1-4.2-2.2C-592,392.6-592.2,392.4-592.2,392.2z"/>
</g>
</svg>
