<?xml version="1.0" encoding="utf-8"?>
<!-- Generator: Adobe Illustrator 19.1.0, SVG Export Plug-In . SVG Version: 6.00 Build 0)  -->
<svg version="1.1" id="Layer_1" xmlns="http://www.w3.org/2000/svg" xmlns:xlink="http://www.w3.org/1999/xlink" x="0px" y="0px"
	 viewBox="-599 384 25 25" style="enable-background:new -599 384 25 25;" xml:space="preserve">
<style type="text/css">
	.st0{fill:#FFFFFF;}
	.st1{fill:#5B5B5B;}
</style>
<g>
	<g id="building_2_">
		<g>
			<path class="st0" d="M-586.3,388.8c-0.7,0-1.3,0.6-1.3,1.3c0,0.7,0.6,1.3,1.3,1.3s1.3-0.6,1.3-1.3
				C-585,389.4-585.6,388.8-586.3,388.8z"/>
			<path class="st1" d="M-586.3,391.8c-0.9,0-1.7-0.8-1.7-1.7c0-0.9,0.8-1.7,1.7-1.7s1.7,0.8,1.7,1.7S-585.4,391.8-586.3,391.8z
				 M-586.3,389.1c-0.5,0-1,0.4-1,1c0,0.5,0.4,1,1,1c0.5,0,1-0.4,1-1C-585.4,389.6-585.8,389.1-586.3,389.1z"/>
		</g>
		<g>
			<path class="st0" d="M-576,392.2l-9.4-6.4c-0.3-0.1-0.6-0.2-0.8-0.2c-0.3,0-0.5,0.1-0.8,0.2l-9.6,6.5c-0.4,0.4-0.2,1.5,0.5,1.5
				h19.5l0,0C-575.7,393.7-575.6,392.6-576,392.2z M-594.1,392.2l7.7-5.2c0.1,0,0.1,0,0.1,0s0,0,0.1,0l7.6,5.2H-594.1z"/>
			<path class="st1" d="M-576.6,394.1h-19.6c-0.5,0-0.9-0.4-1-0.8c-0.2-0.5-0.1-1,0.2-1.3l9.6-6.5c0.9-0.4,1.4-0.3,2,0l9.5,6.5
				c0.4,0.4,0.5,1,0.3,1.5C-575.7,393.8-576.1,394.1-576.6,394.1z M-586.3,385.9c-0.2,0-0.4,0.1-0.7,0.2l-9.5,6.4
				c-0.1,0.1-0.1,0.3,0,0.5s0.2,0.3,0.3,0.3h19.5c0.2,0,0.4-0.1,0.4-0.2c0.1-0.2,0-0.5-0.1-0.6l-9.4-6.4
				C-585.9,386-586.1,385.9-586.3,385.9z M-577.4,392.6h-17.9l8.7-5.9c0.2-0.1,0.2-0.1,0.3-0.1h0.1l0.2,0.1L-577.4,392.6z
				 M-592.8,391.9h13l-6.5-4.4L-592.8,391.9z"/>
		</g>
		<g>
			<path class="st0" d="M-575.6,405.6c0,0.7-0.6,1.3-1.3,1.3h-18.8c-0.7,0-1.3-0.6-1.3-1.3l0,0c0-0.7,0.6-1.3,1.3-1.3h18.8
				C-576.2,404.3-575.6,404.9-575.6,405.6L-575.6,405.6z"/>
			<path class="st1" d="M-576.9,407.4h-18.8c-0.9,0-1.7-0.8-1.7-1.7c0-0.9,0.8-1.7,1.7-1.7h18.8c0.9,0,1.7,0.8,1.7,1.7
				C-575.2,406.6-576,407.4-576.9,407.4z M-595.7,404.7c-0.5,0-1,0.4-1,1s0.4,1,1,1h18.8c0.5,0,1-0.4,1-1s-0.4-1-1-1H-595.7z"/>
		</g>
		<g>
			<path class="st0" d="M-594.1,394.9c-0.5,0.9-0.9,2.4-0.9,4.1s0.4,3.2,0.9,4.1h2.4c0.5-0.9,0.9-2.4,0.9-4.1s-0.3-3.2-0.9-4.1
				H-594.1z"/>
			<path class="st1" d="M-591.5,403.6h-2.9l-0.1-0.2c-0.6-1-0.9-2.6-0.9-4.3c0-1.7,0.3-3.3,0.9-4.3l0.1-0.2h2.9l0.1,0.2
				c0.6,1,0.9,2.6,0.9,4.3c0,1.7-0.3,3.3-0.9,4.3L-591.5,403.6z M-593.9,402.8h2c0.5-0.9,0.7-2.3,0.7-3.8s-0.3-2.8-0.7-3.8h-2
				c-0.5,0.9-0.7,2.3-0.7,3.8S-594.3,401.9-593.9,402.8z"/>
		</g>
		<g>
			<path class="st0" d="M-587.6,394.9c-0.5,0.9-0.9,2.4-0.9,4.1s0.4,3.2,0.9,4.1h2.4c0.5-0.9,0.9-2.4,0.9-4.1s-0.4-3.2-0.9-4.1
				H-587.6z"/>
			<path class="st1" d="M-584.9,403.6h-2.9l-0.1-0.2c-0.6-1-0.9-2.6-0.9-4.3c0-1.7,0.3-3.3,0.9-4.3l0.1-0.2h2.9l0.1,0.2
				c0.6,1,0.9,2.6,0.9,4.3c0,1.7-0.3,3.3-0.9,4.3L-584.9,403.6z M-587.3,402.8h2c0.5-0.9,0.7-2.3,0.7-3.8s-0.3-2.8-0.7-3.8h-2
				c-0.5,0.9-0.7,2.3-0.7,3.8C-588.1,400.5-587.8,401.9-587.3,402.8z"/>
		</g>
		<g>
			<path class="st0" d="M-581,394.9c-0.5,0.9-0.9,2.4-0.9,4.1s0.4,3.2,0.9,4.1h2.4c0.5-0.9,0.9-2.4,0.9-4.1s-0.3-3.2-0.9-4.1H-581z"
				/>
			<path class="st1" d="M-578.3,403.6h-2.9l-0.1-0.2c-0.6-1-0.9-2.6-0.9-4.3c0-1.7,0.3-3.3,0.9-4.3l0.1-0.2h2.9l0.1,0.2
				c0.6,1,0.9,2.6,0.9,4.3c0,1.7-0.3,3.3-0.9,4.3L-578.3,403.6z M-580.8,402.8h2c0.5-0.9,0.7-2.3,0.7-3.8s-0.3-2.8-0.7-3.8h-2
				c-0.5,0.9-0.7,2.3-0.7,3.8C-581.5,400.5-581.2,401.9-580.8,402.8z"/>
		</g>
	</g>
</g>
</svg>
