<?xml version="1.0" encoding="utf-8"?>
<!-- Generator: Adobe Illustrator 19.1.0, SVG Export Plug-In . SVG Version: 6.00 Build 0)  -->
<svg version="1.1" id="Layer_1" xmlns="http://www.w3.org/2000/svg" xmlns:xlink="http://www.w3.org/1999/xlink" x="0px" y="0px"
	 viewBox="-599 384 25 25" style="enable-background:new -599 384 25 25;" xml:space="preserve">
<style type="text/css">
	.st0{fill:#5B5B5B;}
	.st1{fill:#FFFFFF;}
</style>
<g>
	<g>
		<g>
			<path class="st0" d="M-592.3,395.9c-0.5-0.3-0.7-0.6-1-0.8c-1.4-1-2.2-0.2-2.4,0.8c-0.3,1.2,0.2,3,1.1,4.5
				c0.6,0.9,1.5,1.4,2.7,0.8c0.4-0.2,0.3-1.2,1.5-2.1C-589.7,398.5-591.8,396.3-592.3,395.9"/>
			<path class="st1" d="M-592.6,396.5c-0.3-0.2-0.5-0.4-0.7-0.6c-1-0.7-1.6-0.4-1.7,0.6c-0.1,0.9,0.2,2.1,0.9,3.2
				c0.4,0.7,1.1,1,1.9,0.6c0.3-0.1,0.2-0.8,1-1.5C-590.7,398.4-592.2,396.8-592.6,396.5"/>
			<path class="st0" d="M-580.4,395.9c0.5-0.3,0.7-0.6,1-0.8c1.4-1,2.2-0.2,2.4,0.8c0.3,1.2-0.2,3-1.1,4.5c-0.6,0.9-1.5,1.4-2.7,0.8
				c-0.4-0.2-0.3-1.2-1.5-2.1C-583.1,398.5-581,396.3-580.4,395.9"/>
			<path class="st1" d="M-580.1,396.5c0.3-0.2,0.5-0.4,0.7-0.6c1-0.7,1.6-0.4,1.7,0.6c0.1,0.9-0.2,2.1-0.9,3.2
				c-0.4,0.7-1.1,1-1.9,0.6c-0.3-0.1-0.2-0.8-1-1.5C-582.1,398.4-580.6,396.8-580.1,396.5"/>
			<path class="st0" d="M-586.4,384.7c-3.6,0-7.7,2.1-7.7,7.9c0,6.6,0.5,9,2,10.9c2.5,3.1,2.5,4.2,5.7,4.2c3.3,0,3.3-1.1,5.7-4.2
				c1.5-1.9,2-4.2,2-10.9C-578.7,386.9-582.8,384.7-586.4,384.7"/>
			<path class="st1" d="M-586.4,385.6c-3.2,0-6.9,1.9-6.9,7.2c0,6,0.4,8.2,1.8,9.8c2.2,2.8,2.2,3.8,5.1,3.8c2.9,0,2.9-1,5.1-3.8
				c1.3-1.7,1.8-3.8,1.8-9.8C-579.5,387.5-583.2,385.6-586.4,385.6"/>
			<path class="st0" d="M-592.4,402c0.4,0.7,1.3,1.5,1.9,2.6c0.9,1.5,2.2,2.1,3.8,2.1c0.3,0,0.1,0,0.3-0.4c0.2,0.3,0,0.4,0.3,0.4
				c1.7,0,3-0.6,3.8-2.1c0.6-1,1.5-1.8,1.9-2.6c0.2-0.4,1.1-2.4,0.7-3.8c-0.2,0.6-0.3,1.7-1.4,2.4c-0.9,0.5-2-1.5-3.7-1.1
				c-0.5,0.1-0.9,0.4-1.6,0.4s-1.1-0.3-1.6-0.4c-1.7-0.4-2.8,1.6-3.7,1.1c-1.1-0.6-1.2-1.7-1.4-2.4
				C-593.5,399.6-592.6,401.6-592.4,402"/>
			<path class="st1" d="M-587.4,403.3c-0.1,0.6-0.9,1.4-1.4,1c-0.6-0.4-1.3-2.3-1-3.4c0.4-1.1,1.4-0.1,3.3-0.1c2,0,3-1,3.4,0.1
				s-0.4,2.9-1,3.4c-0.5,0.4-1.3-0.4-1.4-1c0,0-0.5,0.1-1,0.1l0,0C-586.9,403.4-587.3,403.3-587.4,403.3"/>
			<path class="st0" d="M-584.8,403c-0.9,0.5-2.3,0.5-3.2,0C-587.6,404.2-585.2,404.2-584.8,403"/>
			<path class="st0" d="M-589.1,401.1c2.5,0.4,3.6,0.3,5.5-0.1c0.6-0.1-0.8,1.6-2.8,1.6c-0.8,0-1.7-0.4-2.3-0.8
				C-589.2,401.4-589.5,401.1-589.1,401.1"/>
			<path class="st0" d="M-584.9,394.3c-0.1-0.9,1-1.3,2-1.2c0.7,0,2.3,0.4,2.2,1.2c0,0.2-1.2-0.2-2.3-0.2
				C-583.9,394.2-584.8,394.6-584.9,394.3"/>
			<path class="st0" d="M-583,394.9c0.4,0,0.7,0.3,0.7,0.7c0,0.4-0.3,0.7-0.7,0.7s-0.7-0.3-0.7-0.7S-583.4,394.9-583,394.9"/>
			<path class="st0" d="M-587.7,399.6c-0.5-0.2-0.2-1.2-0.1-1.4c-0.5,0.4-1.1,1.5-0.2,1.9c0.4,0.2,1.2,0.4,1.7,0.4v-0.4
				c-0.1-0.1-0.3-0.2-0.4-0.2C-587.2,399.9-587.5,399.7-587.7,399.6"/>
			<path class="st0" d="M-585.1,399.6c0.5-0.2,0.2-1.2,0.1-1.4c0.5,0.4,1.1,1.5,0.2,1.9c-0.4,0.2-1.2,0.4-1.7,0.4v-0.4
				c0.1-0.1,0.3-0.2,0.4-0.2C-585.6,399.9-585.2,399.7-585.1,399.6"/>
			<path class="st1" d="M-588,401.6c1.5,0.1,2.2,0.1,3.4,0c0.4,0-0.5,0.5-1.7,0.5c-0.5,0-1-0.1-1.4-0.3
				C-588.1,401.7-588.3,401.5-588,401.6"/>
			<path class="st0" d="M-587.9,394.3c0.1-0.9-1-1.3-2-1.2c-0.7,0-2.3,0.4-2.2,1.2c0,0.2,1.2-0.2,2.3-0.2
				C-588.9,394.2-587.9,394.6-587.9,394.3"/>
			<path class="st0" d="M-589.6,394.9c0.4,0,0.7,0.3,0.7,0.7c0,0.4-0.3,0.7-0.7,0.7s-0.7-0.3-0.7-0.7S-590,394.9-589.6,394.9"/>
		</g>
	</g>
</g>
</svg>
