<?xml version="1.0" encoding="utf-8"?>
<!-- Generator: Adobe Illustrator 19.1.0, SVG Export Plug-In . SVG Version: 6.00 Build 0)  -->
<svg version="1.1" id="Layer_1" xmlns="http://www.w3.org/2000/svg" xmlns:xlink="http://www.w3.org/1999/xlink" x="0px" y="0px"
	 viewBox="0 0 54.3 65" style="enable-background:new 0 0 54.3 65;" xml:space="preserve">
<style type="text/css">
	.st0{fill-rule:evenodd;clip-rule:evenodd;fill:#231F20;}
	.st1{fill-rule:evenodd;clip-rule:evenodd;fill:#B28258;}
	.st2{fill-rule:evenodd;clip-rule:evenodd;fill:#966046;}
	.st3{fill-rule:evenodd;clip-rule:evenodd;fill:#FFFFFF;}
</style>
<path class="st0" d="M12,31.4c-1.2-0.9-1.9-1.5-2.6-2c-3.6-2.7-5.7-0.6-6.4,2.1c-0.8,3.3,0.5,7.8,3,11.8c1.5,2.4,4,3.6,7.1,2.1
	c1.1-0.5,0.9-3,3.8-5.4C18.9,38.4,13.5,32.5,12,31.4"/>
<path class="st1" d="M11.3,33.1c-0.9-0.6-1.4-1.1-1.9-1.4c-2.6-1.9-4.3-1.2-4.5,1.5c-0.2,2.4,0.4,5.6,2.3,8.4
	c1.1,1.7,2.9,2.5,5.1,1.5c0.8-0.4,0.6-2.2,2.7-3.8C16.3,38.1,12.3,33.8,11.3,33.1"/>
<path class="st0" d="M43.1,31.4c1.2-0.9,1.9-1.5,2.6-2c3.6-2.7,5.7-0.6,6.4,2.1c0.8,3.3-0.5,7.8-3,11.8c-1.5,2.4-4,3.6-7.1,2.1
	c-1.1-0.5-0.9-3-3.8-5.4C36.2,38.4,41.7,32.5,43.1,31.4"/>
<path class="st2" d="M43.9,33.1c0.9-0.6,1.4-1.1,1.9-1.4c2.6-1.9,4.3-1.2,4.5,1.5c0.2,2.4-0.4,5.6-2.3,8.4c-1.1,1.7-2.9,2.5-5.1,1.5
	c-0.8-0.4-0.6-2.2-2.7-3.8C38.9,38.1,42.8,33.8,43.9,33.1"/>
<path class="st0" d="M27.6,2.3C18.2,2.3,7.4,7.9,7.4,23c0,17.4,1.2,23.6,5.2,28.5c6.4,8,6.4,10.9,15,10.9c8.5,0,8.5-2.9,15-10.9
	c3.9-4.9,5.2-11.1,5.2-28.5C47.7,7.9,37,2.3,27.6,2.3"/>
<path class="st1" d="M27.6,4.6c-8.4,0-18,5-18,18.7c0,15.7,1.1,21.3,4.6,25.7c5.7,7.2,5.7,9.8,13.4,9.8c7.6,0,7.6-2.6,13.4-9.8
	c3.5-4.4,4.6-10,4.6-25.7C45.6,9.6,36,4.6,27.6,4.6"/>
<path class="st2" d="M39.5,50.4c0.3-0.3,0.5-0.7,0.8-1.1c3.4-4.3,4.4-9.7,4.4-24.8c0-8.1-3.5-13.1-8-15.7c3.6,4.1,4.5,8.4,3.9,16.9
	c-0.1,1.8-2.7-2.5-8.4-0.1c-2.7,1.2-3.6,6.5-3.8,15.1c0,2.5-0.8,3.9,2.9,1.8c1.8-1.1,1.9-1.4,1.2-4.3c-0.6-2.7-0.7-6.9,1.7-5.6
	c4.5,2.6,5.5-2.4,6.2,0.4c0.8,3.2,0.2,6.1-2,12.2C38.4,45.6,39.5,49.1,39.5,50.4"/>
<path class="st0" d="M11.9,47.5c0.9,1.9,3.4,4,4.9,6.7c2.2,4,5.6,5.5,10,5.6c0.7,0,0.3-0.1,0.7-0.9c0.4,0.8,0,1,0.7,0.9
	c4.4-0.1,7.8-1.6,10-5.6c1.5-2.7,4-4.8,4.9-6.7c0.6-1.2,2.8-6.4,1.8-10c-0.5,1.7-0.8,4.6-3.6,6.2c-2.4,1.4-5.1-3.9-9.6-2.8
	c-1.3,0.3-2.4,1.1-4.2,1.1c-1.9,0-2.9-0.8-4.2-1.1c-4.5-1.1-7.2,4.2-9.6,2.8c-2.8-1.7-3.1-4.5-3.6-6.2C9.1,41.2,11.3,46.3,11.9,47.5
	"/>
<path class="st1" d="M25.1,51c-0.3,1.5-2.4,3.6-3.7,2.6c-1.7-1.2-3.5-6.1-2.5-8.9c1-3,3.6-0.1,8.7-0.1c5.1,0,7.8-2.7,8.8,0.2
	c1,2.8-0.9,7.6-2.6,8.8c-1.4,1-3.4-1-3.7-2.6c0,0-1.3,0.1-2.5,0.1v-0.1C26.3,51.1,25.1,51,25.1,51"/>
<path class="st0" d="M31.7,50c-2.3,1.2-6,1.2-8.3,0C24.4,53.3,30.8,53.3,31.7,50"/>
<path class="st0" d="M20.6,45.1c6.5,1,9.4,0.8,14.4-0.3c1.5-0.3-2.1,4.3-7.3,4.2c-2,0-4.4-1-6.1-2.2C20.1,46,19.5,45,20.6,45.1"/>
<path class="st0" d="M31.6,27.5c-0.2-2.4,2.6-3.3,5.2-3.2c1.9,0,6,1.2,5.9,3.2c-0.1,0.6-3.1-0.6-6.1-0.4
	C34,27.1,31.6,28.2,31.6,27.5"/>
<path class="st0" d="M36.6,28.9c1.1,0,1.9,0.9,1.9,1.9c0,1.1-0.9,1.9-1.9,1.9c-1.1,0-1.9-0.9-1.9-1.9C34.6,29.7,35.5,28.9,36.6,28.9
	"/>
<path class="st0" d="M24.1,41.2c-1.4-0.5-0.6-3.1-0.3-3.6c-1.4,0.9-3,3.8-0.6,4.8c1.1,0.5,3.1,1,4.4,1v-1c-0.3-0.1-0.7-0.4-1.1-0.5
	C25.6,41.9,24.5,41.4,24.1,41.2"/>
<path class="st0" d="M31.1,41.2c1.4-0.5,0.6-3.1,0.3-3.6c1.4,0.9,3,3.8,0.6,4.8c-1.1,0.5-3.1,1-4.4,1v-1c0.3-0.1,0.7-0.4,1.1-0.5
	C29.6,41.9,30.6,41.4,31.1,41.2"/>
<path class="st3" d="M23.3,46.3c3.9,0.3,5.7,0.3,8.8-0.1c0.9-0.1-1.3,1.4-4.5,1.4c-1.2,0-2.7-0.3-3.7-0.7
	C23.1,46.6,22.7,46.2,23.3,46.3"/>
<path class="st2" d="M16.6,25.4c1.5,0.2,2.6-1.3,4.5-0.9c2,0.4,2.6,2.1,2.7,4.1c0.1,4-2.8,4.7-4.4,3.3c-1.1-0.9-3.4-3.4-6.1-4.7
	C13.1,25.8,16.1,25.3,16.6,25.4"/>
<path class="st0" d="M23.6,27.5c0.2-2.4-2.6-3.3-5.2-3.2c-1.9,0-6,1.2-5.9,3.2c0.1,0.6,3.1-0.6,6.1-0.4
	C21.1,27.1,23.5,28.2,23.6,27.5"/>
<path class="st0" d="M19.2,28.9c1.1,0,1.9,0.9,1.9,1.9c0,1.1-0.9,1.9-1.9,1.9c-1.1,0-1.9-0.9-1.9-1.9C17.3,29.7,18.1,28.9,19.2,28.9
	"/>
</svg>
