<?xml version="1.0" encoding="utf-8"?>
<!-- Generator: Adobe Illustrator 19.1.0, SVG Export Plug-In . SVG Version: 6.00 Build 0)  -->
<svg version="1.1" id="Layer_1" xmlns="http://www.w3.org/2000/svg" xmlns:xlink="http://www.w3.org/1999/xlink" x="0px" y="0px"
	 viewBox="-293 384 89 25" style="enable-background:new -293 384 89 25;" xml:space="preserve">
<style type="text/css">
	.st0{fill:#FFFFFF;}
</style>
<g>
	<path class="st0" d="M-275.2,404.1l5.7-16.2l-3.5,0l-6.6,12.7l1.7-12.7c-0.5-0.2-1-0.2-1.5-0.2c-3.5,0-7.7,3-8,5.6
		c-0.2,1.6,0.6,2.1,2.1,2.1c0-0.2-0.3-0.4-0.1-1.5c0.3-2.5,1.9-4.3,4.3-5l-7,15.1l1.8,0l4.2-9.4l-1.3,9.4l3.1,0l5.6-10.4l-3.6,10.4
		L-275.2,404.1z"/>
	<path class="st0" d="M-268.7,393.1l-3.8,11l3.2,0l3-8.6c0.6-0.5,1-0.7,1.6-0.7c0.7,0-0.1,1.5,1.1,1.4c1.1,0,1.8-0.9,1.9-1.7
		c0.1-0.8-0.4-1.4-1.4-1.4c-0.9,0-1.9,0.5-2.8,1.1l0.4-1.1L-268.7,393.1z"/>
	<path class="st0" d="M-267,402.4c-0.1,1,0.6,1.7,1.5,1.7c1,0,1.9-0.8,2-1.7c0.1-1-0.6-1.8-1.6-1.8
		C-266,400.7-266.9,401.5-267,402.4"/>
	<path class="st0" d="M-245.1,400.1c-1,1.4-2.7,2.1-4.5,2.1c-2.4,0-2.8-1.2-2.4-4.1c0.5-3.9,3-9.5,5.8-9.5c1.4,0,1.4,1.2,1.3,1.6
		c-0.1,0.5-0.6,1.6-1.2,1.8c0.4,0.5,0.8,0.6,1.2,0.6c1.1,0,1.7-0.9,1.8-2c0.3-2.1-1.4-2.9-3.5-2.9c-6,0-8.4,6.2-9,11
		c-0.6,4.5,1.9,5.6,4.1,5.6c2.1,0,5.2-0.7,6.8-3.9L-245.1,400.1z"/>
	<path class="st0" d="M-237.8,395.3c-0.2,1.6-1.9,3.3-4,3.3c0.7-2.1,2.1-4.6,3.4-4.6C-237.8,394-237.8,394.8-237.8,395.3
		 M-234.7,399.7c0.1-0.7-0.1-1.1-0.6-1.2c0.6-1.1,1.1-2.5,1.6-3.6c-0.3,2.7,0.5,3.9,0.3,5.3c-0.2,1.7-1.4,2.6-2.2,2.6
		c-1.2,0-1.8-0.6-1.7-1.9c0.3,0.1,0.5,0.2,0.8,0.2C-235.6,401.1-234.8,400.5-234.7,399.7z M-242.3,400.6c0-0.3,0.1-0.6,0.2-0.9
		c2.2-0.3,5.3-1.8,5.7-4.5c0.2-1.5-0.7-2.3-2.6-2.3c-4.1,0-5.9,4.9-6.3,7.7c-0.3,1.9,0.7,3.5,2.8,3.5c1.8,0,3.1-0.8,4.2-1.9
		c0.2,1.4,1.3,1.9,3.5,1.9c2.1,0,3.5-0.8,4.2-2c1-0.7,2-1.5,2.7-2l-0.5-0.7c-0.3,0.3-0.9,0.9-1.6,1.4c0-0.2,0.1-0.3,0.1-0.5
		c0.3-2.6-1-3.7-0.5-7.3l0-0.3l-3.3,0.7c-0.6,1.7-1.4,3.6-2.4,5.1c-0.8,0.1-1.7,1-2,2.5c-0.8,1-1.6,1.6-2.5,1.6
		C-241.6,402.5-242.5,402-242.3,400.6z"/>
	<path class="st0" d="M-222.3,394.3c0.3,0,0.7,0.1,1,0.4l-2,5.8c-0.1,0.3-0.2,0.5-0.2,0.7c-0.5,0.6-1.1,1.1-1.6,1.1
		c-0.6,0-1.3-0.2-1.1-1.6C-225.8,397.8-224,394.3-222.3,394.3 M-220.7,393l-0.2,0.6c-0.4-0.3-0.9-0.5-1.4-0.5c-4.5,0-6.5,4.5-7,8.3
		c-0.2,1.3,0.3,2.8,2.4,2.8c1.4,0,2.5-0.9,3.3-1.8c0.1,1.1,1.1,1.7,2.5,1.7c1.7,0,4.7-2.9,5.8-3.9l-0.8,0c-1,0.7-2.3,1.9-3.2,1.9
		c-0.9,0-1.1-0.4-1-0.8c0-0.2,0.1-0.4,0.2-0.7l2.6-7.5L-220.7,393z"/>
	<path class="st0" d="M-214.6,393l-3.8,11l3.2,0l3-8.6c0.6-0.5,1-0.7,1.6-0.7c0.7,0-0.1,1.5,1.1,1.4c1.1,0,1.8-0.9,1.9-1.7
		c0.1-0.8-0.4-1.4-1.4-1.4c-0.9,0-1.9,0.5-2.8,1.1l0.4-1.1L-214.6,393z"/>
</g>
</svg>
