<?xml version="1.0" encoding="utf-8"?>
<!-- Generator: Adobe Illustrator 19.1.0, SVG Export Plug-In . SVG Version: 6.00 Build 0)  -->
<svg version="1.1" id="Layer_1" xmlns="http://www.w3.org/2000/svg" xmlns:xlink="http://www.w3.org/1999/xlink" x="0px" y="0px"
	 viewBox="0 0 158.3 181" style="enable-background:new 0 0 158.3 181;" xml:space="preserve">
<style type="text/css">
	.st0{fill-rule:evenodd;clip-rule:evenodd;fill:#231F20;}
	.st1{fill-rule:evenodd;clip-rule:evenodd;fill:#E4A324;}
	.st2{fill-rule:evenodd;clip-rule:evenodd;fill:#D67527;}
	.st3{fill-rule:evenodd;clip-rule:evenodd;fill:#5AB3AB;}
	.st4{fill-rule:evenodd;clip-rule:evenodd;fill:#ADDFF8;}
	.st5{fill-rule:evenodd;clip-rule:evenodd;fill:#B28258;}
	.st6{fill-rule:evenodd;clip-rule:evenodd;fill:#966046;}
	.st7{fill-rule:evenodd;clip-rule:evenodd;fill:#EC2024;}
	.st8{fill-rule:evenodd;clip-rule:evenodd;fill:#C32026;}
	.st9{fill-rule:evenodd;clip-rule:evenodd;fill:#FFCC05;}
	.st10{fill:#231F20;}
	.st11{fill-rule:evenodd;clip-rule:evenodd;fill:#FAF6C0;}
	.st12{fill-rule:evenodd;clip-rule:evenodd;fill:#FFFFFF;}
	.st13{fill-rule:evenodd;clip-rule:evenodd;fill:#D91F26;}
</style>
<polygon class="st0" points="144.7,163.9 157.3,176.4 112,177.6 112,150.7 155.7,150.4 "/>
<polygon class="st1" points="114.6,175 114.6,153.3 150.3,153 141.2,164.1 151.2,173.9 "/>
<polygon class="st0" points="14.8,148.6 3.8,135 47.5,135.4 47.5,162.3 2.2,161 "/>
<polygon class="st1" points="44.9,159.6 44.9,138 9.3,137.7 18.3,148.8 8.3,158.6 "/>
<polygon class="st0" points="44.6,163.3 23.5,152.1 23.4,149.2 44.4,135.4 47.1,136.9 47.1,161.8 "/>
<polygon class="st2" points="44.5,160.3 26,150.5 44.5,138.4 "/>
<polygon class="st0" points="114.5,149.7 135.5,160.8 135.7,163.8 114.7,177.5 112,176.1 112,151.2 "/>
<polygon class="st2" points="114.6,152.6 133,162.4 114.6,174.5 "/>
<path class="st0" d="M81.2,118.9l3.5-4.8l25.2,13.9l-1,2.2c-2,4.5-3.1,9.1-3.6,14l-0.2,2.3H57.4l-0.3-2.2c-0.7-4.9-1.9-9.6-3.6-14.2
	l-0.8-2.1l25.1-13.8L81.2,118.9z"/>
<path class="st3" d="M85.4,117.5l-4.2,5.8l-4.2-5.8l-21.1,11.7c1.7,4.5,3,9.4,3.8,14.8h21.6h21.6c0.5-4.9,1.6-9.9,3.8-14.8
	L85.4,117.5z"/>
<path class="st0" d="M78.4,123.9c-1.5,0.9-3.2,1.8-4.8,2.6c-9.2,4.4-21.7,7.6-31.8,7.5c-1.2,0-2.4-0.3-3.5-0.9
	c-3.5-1.9-5.1-6.4-6.1-10.1c-0.6-2.4-1.1-5-1.9-7.3c-1.5-4.4-1.4-9-1-13.5c0.2-2.5,0.9-7,0.3-9.3c-1.2-4.5-0.6-9.3,1.1-13.6
	c2.6-6.7,8.3-12.5,15.7-13.3c4.4-0.9,8.9-3.1,13.1-4.7c0.3-0.1,0.6-0.2,0.9-0.2c0.5-1.2,1.5-2.4,2.3-3.3c2-2.4,1.7-2.9,4.7-4.5
	c1.1-0.6,0.7-0.1,1.5,0.9c0.4,0.5,0.7,1.1,0.7,1.7l0.9,4l9.2,9.4c0.2,0.2,0.4,0.5,0.5,0.8c0.1-0.3,0.3-0.5,0.5-0.8l9.2-9.4l0.9-4
	c0.1-0.6,0.3-1.2,0.7-1.7c2.8-3.2,4.7,1.8,6.2,3.6c0.8,0.9,1.7,2.1,2.3,3.3c0.3,0,0.6,0.1,0.9,0.2c4.2,1.6,8.8,3.8,13.2,4.7l0,0
	c1.5,0.2,2.9,0.6,4.3,1.2c5.2,2.2,9,6.9,11.1,12.1c1.7,4.3,2.2,9.1,1.1,13.6c-0.6,2.3,0.1,6.9,0.3,9.3c0.4,4.5,0.5,9.1-1,13.5
	c-0.8,2.3-1.2,4.9-1.9,7.3c-1.3,4.8-3.6,10.9-9.6,11c-10.2,0.1-24.1-3.7-33.4-8l-4.2-1.9L78.4,123.9z"/>
<path class="st4" d="M68.2,61.1L67,55.8c-0.5,0.9-4.8,5.7-4.3,7.2c0.7,1.8,2.3,9.9,3.3,13.8c3.5-3.9,10-5.2,13-5.6L68.2,61.1z"/>
<path class="st3" d="M68.2,61.1l-0.3-1.4c-0.2,0.1,0.3,0.4-0.9,0.7c1.2,1.1,5.1,6.5,6.6,8.7c1.4,2-0.5,2.4-2.3,4.2
	c2.9-1.2,5.9-1.8,7.7-2L68.2,61.1z"/>
<path class="st3" d="M92.4,61.1l1.2-5.2c0.9,0.8,4.8,5.7,4.3,7.2c-0.7,1.8-2.2,10.1-3.2,14c-3.7-3.4-8.1-5.4-12.7-5.8L92.4,61.1z"/>
<path class="st4" d="M92.4,61.1l1.2-5.2c0.9,0.8,4.8,5.7,4.3,7.2c-0.1,0.3-0.2,0.7-0.4,1.2c-0.4-1.1-1-2-1.9-3.3
	c-0.3-0.4-0.3-0.3-1.4,0.5c-0.6,0.5-2.1,1.1-3.6,1.5L92.4,61.1z"/>
<polygon class="st0" points="80.6,46.8 95.7,42 94.2,60.3 80.6,72.4 66.9,60.3 65.4,42 "/>
<polygon class="st5" points="67.9,45.1 80.6,49.1 93.2,45.1 92,59.2 80.6,69.4 69.1,59.2 "/>
<path class="st6" d="M74.3,47.1l6.3,2l6.2-2l6.2,0l-1,12L80.6,69.4l0.1-4.8c-4-2.9-8.3-5.4-9.1-7.3L74.3,47.1L74.3,47.1z"/>
<path class="st0" d="M65,30.1c-1.2-0.9-1.9-1.5-2.6-2c-3.6-2.7-5.7-0.6-6.4,2.1c-0.8,3.3,0.5,7.8,3,11.8c1.5,2.4,4,3.6,7.1,2.1
	c1.1-0.5,0.9-3,3.8-5.4C71.9,37.1,66.5,31.2,65,30.1"/>
<path class="st5" d="M64.3,31.7c-0.9-0.6-1.4-1.1-1.9-1.4c-2.6-1.9-4.3-1.2-4.5,1.5c-0.2,2.4,0.4,5.6,2.3,8.4
	c1.1,1.7,2.9,2.5,5.1,1.5c0.8-0.4,0.6-2.2,2.7-3.8C69.3,36.7,65.3,32.5,64.3,31.7"/>
<path class="st0" d="M96.1,30.1c1.2-0.9,1.9-1.5,2.6-2c3.6-2.7,5.7-0.6,6.4,2.1c0.8,3.3-0.5,7.8-3,11.8c-1.5,2.4-4,3.6-7.1,2.1
	c-1.1-0.5-0.9-3-3.8-5.4C89.2,37.1,94.7,31.2,96.1,30.1"/>
<path class="st6" d="M96.9,31.7c0.9-0.6,1.4-1.1,1.9-1.4c2.6-1.9,4.3-1.2,4.5,1.5c0.2,2.4-0.4,5.6-2.3,8.4c-1.1,1.7-2.9,2.5-5.1,1.5
	c-0.8-0.4-0.6-2.2-2.7-3.8C91.9,36.7,95.8,32.5,96.9,31.7"/>
<path class="st0" d="M80.6,1c-9.4,0-20.1,5.6-20.1,20.7c0,17.4,1.2,23.6,5.2,28.5C72,58.2,72,61,80.6,61c8.5,0,8.5-2.9,15-10.9
	c3.9-4.9,5.2-11.1,5.2-28.5C100.7,6.6,90,1,80.6,1"/>
<path class="st5" d="M80.6,3.3c-8.4,0-18,5-18,18.7c0,15.7,1.1,21.3,4.6,25.7c5.7,7.2,5.7,9.8,13.4,9.8c7.6,0,7.6-2.6,13.4-9.8
	c3.5-4.4,4.6-10,4.6-25.7C98.6,8.3,89,3.3,80.6,3.3"/>
<path class="st6" d="M92.5,49.1c0.3-0.3,0.5-0.7,0.8-1.1c3.4-4.3,4.4-9.7,4.4-24.8c0-8.1-3.5-13.1-8-15.7c3.6,4.1,4.5,8.4,3.9,16.9
	c-0.1,1.8-2.7-2.5-8.4-0.1c-2.7,1.2-3.6,6.5-3.8,15.1c0,2.5-0.8,3.9,2.9,1.8c1.8-1.1,1.9-1.4,1.2-4.3c-0.6-2.7-0.7-6.9,1.7-5.6
	c4.5,2.6,5.5-2.4,6.2,0.4c0.8,3.2,0.2,6.1-2,12.2C91.4,44.2,92.5,47.8,92.5,49.1"/>
<path class="st0" d="M64.9,46.2c0.9,1.9,3.4,4,4.9,6.7c2.2,4,5.6,5.5,10,5.6c0.7,0,0.3-0.1,0.7-0.9c0.4,0.8,0,1,0.7,0.9
	c4.4-0.1,7.8-1.6,10-5.6c1.5-2.7,4-4.8,4.9-6.7c0.6-1.2,2.8-6.4,1.8-10c-0.5,1.7-0.8,4.6-3.6,6.2c-2.4,1.4-5.1-3.9-9.6-2.8
	c-1.3,0.3-2.4,1.1-4.2,1.1s-2.9-0.8-4.2-1.1c-4.5-1.1-7.2,4.2-9.6,2.8c-2.8-1.7-3.1-4.5-3.6-6.2C62.1,39.8,64.3,45,64.9,46.2"/>
<path class="st5" d="M78.1,49.6c-0.3,1.5-2.4,3.6-3.7,2.6c-1.7-1.2-3.5-6.1-2.5-8.9c1-3,3.6-0.1,8.7-0.1c5.1,0,7.8-2.7,8.8,0.2
	c1,2.8-0.9,7.6-2.6,8.8c-1.4,1-3.4-1-3.7-2.6c0,0-1.3,0.1-2.5,0.1v-0.1C79.3,49.8,78.1,49.6,78.1,49.6"/>
<path class="st0" d="M84.7,48.6c-2.3,1.2-6,1.2-8.3,0C77.4,52,83.8,52,84.7,48.6"/>
<path class="st0" d="M73.6,43.8c6.5,1,9.4,0.8,14.4-0.3c1.5-0.3-2.1,4.3-7.3,4.2c-2,0-4.4-1-6.1-2.2C73.1,44.6,72.5,43.7,73.6,43.8"
	/>
<path class="st0" d="M84.6,26.1c-0.2-2.4,2.6-3.3,5.2-3.2c1.9,0,6,1.2,5.9,3.2c-0.1,0.6-3.1-0.6-6.1-0.4
	C87,25.7,84.6,26.9,84.6,26.1"/>
<path class="st0" d="M89.6,27.5c1.1,0,1.9,0.9,1.9,1.9c0,1.1-0.9,1.9-1.9,1.9c-1.1,0-1.9-0.9-1.9-1.9C87.6,28.4,88.5,27.5,89.6,27.5
	"/>
<path class="st0" d="M77.1,39.9c-1.4-0.5-0.6-3.1-0.3-3.6c-1.4,0.9-3,3.8-0.6,4.8c1.1,0.5,3.1,1,4.4,1v-1c-0.3-0.1-0.7-0.4-1.1-0.5
	C78.6,40.5,77.5,40.1,77.1,39.9"/>
<path class="st0" d="M84.1,39.9c1.4-0.5,0.6-3.1,0.3-3.6c1.4,0.9,3,3.8,0.6,4.8c-1.1,0.5-3.1,1-4.4,1v-1c0.3-0.1,0.7-0.4,1.1-0.5
	C82.6,40.5,83.6,40.1,84.1,39.9"/>
<path class="st3" d="M79.2,97.7V74.3c-4-0.3-10.1,1.7-14.4,7.2l-4.4-17.8c-4.1,1.6-9.1,3.9-13.6,4.8c1.7-0.1,0.6,6.7,2.3,6.8
	c6.9,0.4,12.2,19.4,12.2,26.5C61.8,101.9,77.7,99.3,79.2,97.7"/>
<path class="st4" d="M62.6,72.6l-2.2-8.9c-4.1,1.6-9.1,3.9-13.6,4.8c1.7-0.1,0.6,6.7,2.3,6.8c1.7,0.1,1.7-0.4,3.1,1.5
	C57.1,75.9,59.7,74.6,62.6,72.6"/>
<path class="st4" d="M46.8,68.5c9,1.2,10.3,28.3,10.4,33.9c-3.1,0.7-7.6,2.7-9.6,5c18.7-6.3,23.2-2.4,38.2-9.7
	c1.1-0.5,4.8,1,6.8,3.3c2.3,2.7,2.8,7.8,2,8.7c-3.5,4-19.2,12.9-22.1,14.3c-9.3,4.5-21.5,7.3-30.6,7.2c-6.5-0.1-7.2-11.3-9-16.5
	c-2.7-8.1,0.6-17.5-0.7-22.6C29.6,82.3,36.6,69.5,46.8,68.5"/>
<path class="st3" d="M53.5,76.5c3.1,8.8,3.7,22.1,3.7,25.8c-2.4,0.6-5.6,1.9-7.8,3.5c0.3-0.5-2.1-5.8-1.6-8.3
	C49.1,89.9,54.1,95.3,53.5,76.5"/>
<path class="st3" d="M93.2,101.9c1.8,2.8,2.1,7,1.4,7.9c-3.5,4-19.2,12.9-22.1,14.3c-9.3,4.5-21.5,7.3-30.6,7.2
	c-0.4,0-0.8-0.1-1.2-0.1c-0.2-0.5-0.3-0.9-0.4-1.4c-1.8-7.8,0.3-7.3,4.5-7.7C60.7,120.7,85.1,106.7,93.2,101.9"/>
<path class="st3" d="M113.7,68.5c-9,1.2-10.3,28.3-10.4,33.9c3.1,0.7,7.6,2.7,9.6,5c-2.6-0.7-6.4-1.5-10.9-2.3
	c-3.9,7.6-6.1,12-15.5,18.5c9,4.2,22.7,7.8,32.2,7.7c6.5-0.1,7.2-11.3,9-16.5c2.7-8.1-0.6-17.5,0.7-22.6
	C130.9,82.3,123.9,69.5,113.7,68.5"/>
<path class="st4" d="M112.9,107.4c-2.6-0.7-6.4-1.5-10.9-2.3c-0.3,0.7-0.7,1.3-1,2C105.1,107.1,109,107.4,112.9,107.4 M113.7,68.5
	c-1.1,0.1-2.2,0.7-3.1,1.6c2.3,0.9,4.4,1.7,6.2,2.4c7.1,2.9,10.4,12.5,9.1,17.1c-1.5,5.1,1.7,16.6,0.4,23.3c-0.5,2.8-1,7.4-1.2,11.7
	c1.1-3.4,1.8-7.3,2.6-9.8c2.7-8.1-0.6-17.5,0.7-22.6C130.9,82.3,123.9,69.5,113.7,68.5z"/>
<path class="st3" d="M81.7,96.8l0.1-22.6c4-0.3,9.8,1.8,14,7.3l4.4-17.8c4.1,1.6,9.1,3.9,13.6,4.8c-1.7-0.1-0.6,6.7-2.3,6.8
	c-4.8,0.3-8.8,10.1-10.8,18c-3.6,0.4-8.1,0.9-10.8,2.5c-0.4,0.1-1.6-0.6-2.8-0.5C85.9,95.4,83.6,96.4,81.7,96.8"/>
<path class="st4" d="M99.7,65.8l0.5-2.1c4.1,1.6,9.1,3.9,13.6,4.8c-0.7,0-0.9,1.1-1.1,2.4C108.9,69.5,104.3,67.8,99.7,65.8"/>
<path class="st0" d="M90.5,98.6c-1.2-0.2-1.4,0-1.5-1.3c-0.1-1.3-2.7-1.6-1.4-2c1.9-0.5,7.3-1.8,9.3-2.1c1-0.1,3.9-0.4,5-0.5
	c1.4-0.1,0.6,1.2,0.9,2.5c0.1,0.4,0.1,0.8,0.1,1.2c0,0.9-0.1,1.8-0.3,2.6c-0.5,2.4-1.4,4.8-2.7,6.9c-0.6,0.9-1.5,1.4-2.6,1.2
	c-1.1-0.1-1.9-0.9-2.2-1.9c-0.3-1-0.8-1.9-1.3-2.8C93.4,101.9,91.3,99,90.5,98.6"/>
<path class="st6" d="M91.6,97.1c1.8,0.1,5.1,4.5,6,7.6c2.5-4.1,2.9-9,2.4-9C96.9,95.9,96.3,95.8,91.6,97.1"/>
<path class="st0" d="M53.8,102.7c-0.6,0.2-1.3,0.3-1.9,0.5l-2.1,0.6l-0.6-2.1c0-0.2-0.1-0.3-0.1-0.5l-0.6,0.2l-0.9-0.7
	c-1.5-1.2-2.3-3-2.5-4.9l-0.1-1.3l1.1-0.8c0.5-0.4,1.2-0.7,1.9-1c-0.6-2-0.6-4.6-0.2-4.7c5.3-0.9,12.1-0.9,16,3.1c0.9,1,1.8,2,2.7,3
	c1.4,1.6,2.7,3.1,4.1,4.7l2.5,2.8l-3.6,0.9c-1.8,0.4-3.6,0.8-5.4,1c-1.4,0.2-2.7,0.3-4.1,0.4c-1.1,0.1-2.1,0.3-3.1,0.6l-2,0.6
	l-0.8-1.9C53.9,103.1,53.9,102.9,53.8,102.7"/>
<path class="st5" d="M68.8,100.5c-4.5-5.1-6.6-7.7-8-8.9c-2.2-1.9-8.1-2-10.8-1.5c-0.3,0.1-0.2,2.3,0.6,3.1c1.2,0,4.3,0,5.4,0.4
	c-2.5-0.3-6.9,0.8-8.7,2.2c0.1,1.2,0.6,2.6,1.7,3.4c0.3-0.1,1-0.3,1.6-0.4c0.1,0.6,0.5,1.7,0.8,2.6c1.6-0.5,2.8-0.8,4.1-1
	c0,0,0.4,1.6,0.7,2.4C60.1,101.4,63.1,101.9,68.8,100.5"/>
<path class="st6" d="M68.8,100.5c-4.5-5.1-6.6-7.7-8-8.9c0,0-0.1-0.1-0.1-0.1c-0.1,1.7-0.7,5.8-0.7,6.8c0,0.1,1.7,0.3,1.8,0.5
	c0.2,1.2,0.3,2.1,0.4,2.8C64,101.4,66.1,101.1,68.8,100.5"/>
<path class="st0" d="M84.5,102.7c1.7,1.8,7,9.7,3.6,16.8l4.1-2.1C92.3,113,90.1,105.4,84.5,102.7"/>
<polygon class="st0" points="76,78.6 74.8,72.8 76.8,72 83.9,72 86.3,73 85.2,78.6 86.8,97.2 74.3,101.5 "/>
<path class="st7" d="M78.1,79.8l-1.4,19l7.6-2.8L83,79.8C81.3,79.6,79.8,79.6,78.1,79.8 M78.1,77.9l-0.7-3.6h6.3L83,77.9
	C81.3,78,79.8,78,78.1,77.9z"/>
<path class="st8" d="M80.6,97.4V79.7c0.8,0,1.6,0.1,2.4,0.1L84.4,96L80.6,97.4z M80.6,74.3h3.2L83,77.9c-0.9,0-1.6,0-2.4,0V74.3z"/>
<polygon class="st0" points="135.6,134 135.6,163.8 23.5,178.8 23.5,149.1 "/>
<polygon class="st9" points="133,136.9 26,151.3 26,175.9 133,161.5 "/>
<path class="st10" d="M52.4,168.2l3.7-17.7l-3.7,0.5l-5.1,14.2v-13.5c-0.5-0.1-1.1-0.1-1.6,0c-3.7,0.5-7.6,4.2-7.6,7
	c0,1.7,0.9,2.2,2.5,1.9c0-0.2-0.3-0.4-0.3-1.5c0-2.7,1.4-4.7,3.8-5.8l-5.2,16.8l1.9-0.3l3.1-10.4v10l3.2-0.4l4.4-11.7L49,168.7
	L52.4,168.2z"/>
<path class="st10" d="M57.6,155.8l-2.5,12l3.4-0.5l1.9-9.4c0.5-0.6,0.9-0.9,1.6-1c0.7-0.1,0,1.5,1.4,1.4c1.1-0.2,1.8-1.2,1.8-2.1
	c0-0.9-0.6-1.4-1.7-1.3c-1,0.1-1.9,0.8-2.8,1.5l0.3-1.2L57.6,155.8z"/>
<path class="st10" d="M60.8,165.3c0,1,0.8,1.7,1.8,1.6c1-0.1,1.9-1.1,1.9-2.1c0-1-0.8-1.8-1.9-1.6S60.8,164.3,60.8,165.3"/>
<path class="st10" d="M83.3,159.8c-0.9,1.6-2.6,2.6-4.4,2.8c-2.5,0.3-3.1-0.9-3.1-4c0-4.2,1.8-10.4,4.7-10.8
	c1.5-0.2,1.6,1.1,1.6,1.4c0,0.6-0.4,1.8-1,2.1c0.4,0.5,1,0.5,1.3,0.4c1.2-0.2,1.6-1.1,1.6-2.4c0-2.3-1.9-2.9-4.1-2.6
	c-6.2,0.8-7.9,7.7-7.9,12.8c0,4.8,2.7,5.6,5.1,5.3c2.2-0.3,5.3-1.4,6.6-5L83.3,159.8z"/>
<path class="st10" d="M90.2,153.7c0,1.7-1.5,3.7-3.7,4c0.5-2.3,1.6-5.1,2.9-5.2C90.1,152.4,90.2,153.3,90.2,153.7 M94.2,157.9
	c0-0.7-0.2-1.1-0.8-1.2c0.5-1.2,0.8-2.8,1.2-4c0,2.9,1.1,4,1.1,5.5c0,1.8-1.1,2.9-1.9,3c-1.2,0.2-2-0.3-2-1.7
	c0.3,0.1,0.6,0.1,0.8,0.1C93.4,159.5,94.2,158.8,94.2,157.9z M86.3,159.9c0-0.3,0-0.6,0.1-1c2.2-0.6,5.3-2.6,5.3-5.5
	c0-1.6-1.1-2.3-3-2c-4.3,0.6-5.5,6-5.5,8.9c0,2,1.2,3.6,3.5,3.3c1.9-0.3,3.1-1.2,4.1-2.6c0.4,1.4,1.7,1.8,3.9,1.5
	c2.2-0.3,3.5-1.4,4.1-2.7c0.9-0.9,1.9-1.9,2.5-2.5l-0.6-0.7c-0.3,0.4-0.9,1.1-1.5,1.7c0-0.2,0-0.3,0-0.5c0-2.7-1.6-3.7-1.6-7.6V150
	l-3.4,1.2c-0.4,1.8-0.9,4-1.8,5.6c-0.9,0.2-1.7,1.3-1.8,2.9c-0.7,1.2-1.5,1.9-2.4,2C87.3,161.8,86.3,161.5,86.3,159.9z"/>
<path class="st10" d="M106.3,150.6c0.3,0,0.8,0,1.1,0.3l-1.3,6.4c-0.1,0.3-0.1,0.6-0.1,0.8c-0.4,0.7-1,1.3-1.5,1.4
	c-0.6,0.1-1.4-0.1-1.4-1.5C103.2,154.7,104.6,150.8,106.3,150.6 M107.9,149l-0.1,0.6c-0.4-0.3-1-0.4-1.6-0.4
	c-4.7,0.6-6.1,5.7-6.1,9.7c0,1.4,0.7,2.9,2.9,2.6c1.4-0.2,2.5-1.3,3.2-2.3c0.3,1.2,1.3,1.6,2.9,1.4c1.8-0.2,4.5-3.7,5.5-4.9
	l-0.8,0.1c-0.9,0.9-2.2,2.4-3.1,2.5c-0.9,0.1-1.2-0.2-1.2-0.7c0-0.2,0-0.5,0.1-0.7l1.7-8.2L107.9,149z"/>
<path class="st10" d="M114.2,148.2l-2.5,12l3.4-0.5l1.9-9.4c0.5-0.6,0.9-0.9,1.6-1c0.7-0.1,0,1.5,1.4,1.4c1.1-0.2,1.8-1.2,1.8-2.1
	c0-0.9-0.6-1.4-1.7-1.3c-1,0.1-1.9,0.8-2.8,1.5l0.3-1.2L114.2,148.2z"/>
<polygon class="st11" points="28,152.9 41.5,151 30.3,153.9 30.3,173.4 28,173.7 "/>
<polygon class="st1" points="128.6,139.4 130.9,139.1 130.9,159.8 116.9,161.9 128.6,158.6 "/>
<path class="st12" d="M76.3,45c3.9,0.3,5.7,0.3,8.8-0.1c0.9-0.1-1.3,1.4-4.5,1.4c-1.2,0-2.7-0.3-3.7-0.7
	C76.1,45.2,75.7,44.9,76.3,45"/>
<path class="st0" d="M89,74.6l4,2.8l-0.4,4.2c-2.1-2.6-5-5.2-8.1-5.8l0.2-2.3L89,74.6z"/>
<path class="st0" d="M71,74.1l-3.6,3.3l0.9,4.1c1.8-2.8,4.3-5.8,7.3-6.8l-0.5-2.3L71,74.1z"/>
<path class="st6" d="M69.6,24.1c1.5,0.2,2.6-1.3,4.5-0.9c2,0.4,2.6,2.1,2.7,4.1c0.1,4-2.8,4.7-4.4,3.3c-1.1-0.9-3.4-3.4-6.1-4.7
	C66.1,24.5,69.1,24,69.6,24.1"/>
<path class="st0" d="M76.6,26.1c0.2-2.4-2.6-3.3-5.2-3.2c-1.9,0-6,1.2-5.9,3.2c0.1,0.6,3.1-0.6,6.1-0.4
	C74.1,25.7,76.5,26.9,76.6,26.1"/>
<path class="st0" d="M72.2,27.5c1.1,0,1.9,0.9,1.9,1.9c0,1.1-0.9,1.9-1.9,1.9c-1.1,0-1.9-0.9-1.9-1.9C70.3,28.4,71.1,27.5,72.2,27.5
	"/>
<polygon class="st0" points="80.8,121.8 72.5,125.4 71.8,135.2 80.8,141.4 89.8,135.2 89.1,125.4 "/>
<polygon class="st13" points="80.3,123 74.9,125.8 74.1,134.2 80.7,138.4 87.5,133.7 87.1,126.8 "/>
</svg>
