<?xml version="1.0" encoding="utf-8"?>
<!-- Generator: Adobe Illustrator 19.1.0, SVG Export Plug-In . SVG Version: 6.00 Build 0)  -->
<svg version="1.1" id="Layer_1" xmlns="http://www.w3.org/2000/svg" xmlns:xlink="http://www.w3.org/1999/xlink" x="0px" y="0px"
	 viewBox="-506 306 107.3 111.7" style="enable-background:new -506 306 107.3 111.7;" xml:space="preserve">
<style type="text/css">
	.st0{clip-path:url(#SVGID_2_);fill:#231F20;}
	.st1{clip-path:url(#SVGID_2_);fill:#5AB3AB;}
	.st2{clip-path:url(#SVGID_2_);fill:#ADDFF8;}
	.st3{clip-path:url(#SVGID_2_);fill:#B28258;}
	.st4{clip-path:url(#SVGID_2_);fill:#966046;}
	.st5{clip-path:url(#SVGID_2_);fill:#EC2024;}
	.st6{clip-path:url(#SVGID_2_);fill:#C32026;}
	.st7{clip-path:url(#SVGID_2_);fill:#FFFFFF;}
	.st8{clip-path:url(#SVGID_2_);fill:#D91F26;}
</style>
<g>
	<defs>
		<rect id="SVGID_1_" x="-532" y="306" width="158.3" height="111.7"/>
	</defs>
	<clipPath id="SVGID_2_">
		<use xlink:href="#SVGID_1_"  style="overflow:visible;"/>
	</clipPath>
	<path class="st0" d="M-450.8,424.9l3.5-4.8l25.2,13.9l-1,2.2c-2,4.5-3.1,9.1-3.6,14l-0.2,2.3h-47.7l-0.3-2.2
		c-0.7-4.9-1.9-9.6-3.6-14.2l-0.8-2.1l25.1-13.8L-450.8,424.9z"/>
	<path class="st1" d="M-446.6,423.5l-4.2,5.8l-4.2-5.8l-21.1,11.7c1.7,4.5,3,9.4,3.8,14.8h21.6h21.6c0.5-4.9,1.6-9.9,3.8-14.8
		L-446.6,423.5z"/>
	<path class="st0" d="M-453.6,429.9c-1.5,0.9-3.2,1.8-4.8,2.6c-9.2,4.4-21.7,7.6-31.8,7.5c-1.2,0-2.4-0.3-3.5-0.9
		c-3.5-1.9-5.1-6.4-6.1-10.1c-0.6-2.4-1.1-5-1.9-7.3c-1.5-4.4-1.4-9-1-13.5c0.2-2.5,0.9-7,0.3-9.3c-1.2-4.5-0.6-9.3,1.1-13.6
		c2.6-6.7,8.3-12.5,15.7-13.3c4.4-0.9,8.9-3.1,13.1-4.7c0.3-0.1,0.6-0.2,0.9-0.2c0.5-1.2,1.5-2.4,2.3-3.3c2-2.4,1.7-2.9,4.7-4.5
		c1.1-0.6,0.7-0.1,1.5,0.9c0.4,0.5,0.7,1.1,0.7,1.7l0.9,4l9.2,9.4c0.2,0.2,0.4,0.5,0.5,0.8c0.1-0.3,0.3-0.5,0.5-0.8l9.2-9.4l0.9-4
		c0.1-0.6,0.3-1.2,0.7-1.7c2.8-3.2,4.7,1.8,6.2,3.6c0.8,0.9,1.7,2.1,2.3,3.3c0.3,0,0.6,0.1,0.9,0.2c4.2,1.6,8.8,3.8,13.2,4.7l0,0
		c1.5,0.2,2.9,0.6,4.3,1.2c5.2,2.2,9,6.9,11.1,12.1c1.7,4.3,2.2,9.1,1.1,13.6c-0.6,2.3,0.1,6.9,0.3,9.3c0.4,4.5,0.5,9.1-1,13.5
		c-0.8,2.3-1.2,4.9-1.9,7.3c-1.3,4.8-3.6,10.9-9.6,11c-10.2,0.1-24.1-3.7-33.4-8l-4.2-1.9L-453.6,429.9z"/>
	<path class="st2" d="M-463.8,367.1l-1.2-5.3c-0.5,0.9-4.8,5.7-4.3,7.2c0.7,1.8,2.3,9.9,3.3,13.8c3.5-3.9,10-5.2,13-5.6
		L-463.8,367.1z"/>
	<path class="st1" d="M-463.8,367.1l-0.3-1.4c-0.2,0.1,0.3,0.4-0.9,0.7c1.2,1.1,5.1,6.5,6.6,8.7c1.4,2-0.5,2.4-2.3,4.2
		c2.9-1.2,5.9-1.8,7.7-2L-463.8,367.1z"/>
	<path class="st1" d="M-439.6,367.1l1.2-5.2c0.9,0.8,4.8,5.7,4.3,7.2c-0.7,1.8-2.2,10.1-3.2,14c-3.7-3.4-8.1-5.4-12.7-5.8
		L-439.6,367.1z"/>
	<path class="st2" d="M-439.6,367.1l1.2-5.2c0.9,0.8,4.8,5.7,4.3,7.2c-0.1,0.3-0.2,0.7-0.4,1.2c-0.4-1.1-1-2-1.9-3.3
		c-0.3-0.4-0.3-0.3-1.4,0.5c-0.6,0.5-2.1,1.1-3.6,1.5L-439.6,367.1z"/>
	<polygon class="st0" points="-451.4,352.8 -436.3,348 -437.8,366.3 -451.4,378.4 -465.1,366.3 -466.6,348 	"/>
	<polygon class="st3" points="-464.1,351.1 -451.4,355.1 -438.8,351.1 -440,365.2 -451.4,375.4 -462.9,365.2 	"/>
	<path class="st4" d="M-457.7,353.1l6.3,2l6.2-2h6.2l-1,12l-11.4,10.3l0.1-4.8c-4-2.9-8.3-5.4-9.1-7.3L-457.7,353.1L-457.7,353.1z"
		/>
	<path class="st0" d="M-467,336.1c-1.2-0.9-1.9-1.5-2.6-2c-3.6-2.7-5.7-0.6-6.4,2.1c-0.8,3.3,0.5,7.8,3,11.8c1.5,2.4,4,3.6,7.1,2.1
		c1.1-0.5,0.9-3,3.8-5.4C-460.1,343.1-465.5,337.2-467,336.1"/>
	<path class="st3" d="M-467.7,337.7c-0.9-0.6-1.4-1.1-1.9-1.4c-2.6-1.9-4.3-1.2-4.5,1.5c-0.2,2.4,0.4,5.6,2.3,8.4
		c1.1,1.7,2.9,2.5,5.1,1.5c0.8-0.4,0.6-2.2,2.7-3.8C-462.7,342.7-466.7,338.5-467.7,337.7"/>
	<path class="st0" d="M-435.9,336.1c1.2-0.9,1.9-1.5,2.6-2c3.6-2.7,5.7-0.6,6.4,2.1c0.8,3.3-0.5,7.8-3,11.8c-1.5,2.4-4,3.6-7.1,2.1
		c-1.1-0.5-0.9-3-3.8-5.4C-442.8,343.1-437.3,337.2-435.9,336.1"/>
	<path class="st4" d="M-435.1,337.7c0.9-0.6,1.4-1.1,1.9-1.4c2.6-1.9,4.3-1.2,4.5,1.5c0.2,2.4-0.4,5.6-2.3,8.4
		c-1.1,1.7-2.9,2.5-5.1,1.5c-0.8-0.4-0.6-2.2-2.7-3.8C-440.1,342.7-436.2,338.5-435.1,337.7"/>
	<path class="st0" d="M-451.4,307c-9.4,0-20.1,5.6-20.1,20.7c0,17.4,1.2,23.6,5.2,28.5c6.3,8,6.3,10.8,14.9,10.8
		c8.5,0,8.5-2.9,15-10.9c3.9-4.9,5.2-11.1,5.2-28.5C-431.3,312.6-442,307-451.4,307"/>
	<path class="st3" d="M-451.4,309.3c-8.4,0-18,5-18,18.7c0,15.7,1.1,21.3,4.6,25.7c5.7,7.2,5.7,9.8,13.4,9.8c7.6,0,7.6-2.6,13.4-9.8
		c3.5-4.4,4.6-10,4.6-25.7C-433.4,314.3-443,309.3-451.4,309.3"/>
	<path class="st4" d="M-439.5,355.1c0.3-0.3,0.5-0.7,0.8-1.1c3.4-4.3,4.4-9.7,4.4-24.8c0-8.1-3.5-13.1-8-15.7
		c3.6,4.1,4.5,8.4,3.9,16.9c-0.1,1.8-2.7-2.5-8.4-0.1c-2.7,1.2-3.6,6.5-3.8,15.1c0,2.5-0.8,3.9,2.9,1.8c1.8-1.1,1.9-1.4,1.2-4.3
		c-0.6-2.7-0.7-6.9,1.7-5.6c4.5,2.6,5.5-2.4,6.2,0.4c0.8,3.2,0.2,6.1-2,12.2C-440.6,350.2-439.5,353.8-439.5,355.1"/>
	<path class="st0" d="M-467.1,352.2c0.9,1.9,3.4,4,4.9,6.7c2.2,4,5.6,5.5,10,5.6c0.7,0,0.3-0.1,0.7-0.9c0.4,0.8,0,1,0.7,0.9
		c4.4-0.1,7.8-1.6,10-5.6c1.5-2.7,4-4.8,4.9-6.7c0.6-1.2,2.8-6.4,1.8-10c-0.5,1.7-0.8,4.6-3.6,6.2c-2.4,1.4-5.1-3.9-9.6-2.8
		c-1.3,0.3-2.4,1.1-4.2,1.1s-2.9-0.8-4.2-1.1c-4.5-1.1-7.2,4.2-9.6,2.8c-2.8-1.7-3.1-4.5-3.6-6.2
		C-469.9,345.8-467.7,351-467.1,352.2"/>
	<path class="st3" d="M-453.9,355.6c-0.3,1.5-2.4,3.6-3.7,2.6c-1.7-1.2-3.5-6.1-2.5-8.9c1-3,3.6-0.1,8.7-0.1s7.8-2.7,8.8,0.2
		c1,2.8-0.9,7.6-2.6,8.8c-1.4,1-3.4-1-3.7-2.6c0,0-1.3,0.1-2.5,0.1v-0.1C-452.7,355.8-453.9,355.6-453.9,355.6"/>
	<path class="st0" d="M-447.3,354.6c-2.3,1.2-6,1.2-8.3,0C-454.6,358-448.2,358-447.3,354.6"/>
	<path class="st0" d="M-458.4,349.8c6.5,1,9.4,0.8,14.4-0.3c1.5-0.3-2.1,4.3-7.3,4.2c-2,0-4.4-1-6.1-2.2
		C-458.9,350.6-459.5,349.7-458.4,349.8"/>
	<path class="st0" d="M-447.4,332.1c-0.2-2.4,2.6-3.3,5.2-3.2c1.9,0,6,1.2,5.9,3.2c-0.1,0.6-3.1-0.6-6.1-0.4
		C-445,331.7-447.4,332.9-447.4,332.1"/>
	<path class="st0" d="M-442.4,333.5c1.1,0,1.9,0.9,1.9,1.9c0,1.1-0.9,1.9-1.9,1.9c-1.1,0-1.9-0.9-1.9-1.9
		C-444.4,334.4-443.5,333.5-442.4,333.5"/>
	<path class="st0" d="M-454.9,345.9c-1.4-0.5-0.6-3.1-0.3-3.6c-1.4,0.9-3,3.8-0.6,4.8c1.1,0.5,3.1,1,4.4,1v-1
		c-0.3-0.1-0.7-0.4-1.1-0.5C-453.4,346.5-454.5,346.1-454.9,345.9"/>
	<path class="st0" d="M-447.9,345.9c1.4-0.5,0.6-3.1,0.3-3.6c1.4,0.9,3,3.8,0.6,4.8c-1.1,0.5-3.1,1-4.4,1v-1
		c0.3-0.1,0.7-0.4,1.1-0.5C-449.4,346.5-448.4,346.1-447.9,345.9"/>
	<path class="st1" d="M-452.8,403.7v-23.4c-4-0.3-10.1,1.7-14.4,7.2l-4.4-17.8c-4.1,1.6-9.1,3.9-13.6,4.8c1.7-0.1,0.6,6.7,2.3,6.8
		c6.9,0.4,12.2,19.4,12.2,26.5C-470.2,407.9-454.3,405.3-452.8,403.7"/>
	<path class="st2" d="M-469.4,378.6l-2.2-8.9c-4.1,1.6-9.1,3.9-13.6,4.8c1.7-0.1,0.6,6.7,2.3,6.8c1.7,0.1,1.7-0.4,3.1,1.5
		C-474.9,381.9-472.3,380.6-469.4,378.6"/>
	<path class="st2" d="M-485.2,374.5c9,1.2,10.3,28.3,10.4,33.9c-3.1,0.7-7.6,2.7-9.6,5c18.7-6.3,23.2-2.4,38.2-9.7
		c1.1-0.5,4.8,1,6.8,3.3c2.3,2.7,2.8,7.8,2,8.7c-3.5,4-19.2,12.9-22.1,14.3c-9.3,4.5-21.5,7.3-30.6,7.2c-6.5-0.1-7.2-11.3-9-16.5
		c-2.7-8.1,0.6-17.5-0.7-22.6C-502.4,388.3-495.4,375.5-485.2,374.5"/>
	<path class="st1" d="M-478.5,382.5c3.1,8.8,3.7,22.1,3.7,25.8c-2.4,0.6-5.6,1.9-7.8,3.5c0.3-0.5-2.1-5.8-1.6-8.3
		C-482.9,395.9-477.9,401.3-478.5,382.5"/>
	<path class="st1" d="M-438.8,407.9c1.8,2.8,2.1,7,1.4,7.9c-3.5,4-19.2,12.9-22.1,14.3c-9.3,4.5-21.5,7.3-30.6,7.2
		c-0.4,0-0.8-0.1-1.2-0.1c-0.2-0.5-0.3-0.9-0.4-1.4c-1.8-7.8,0.3-7.3,4.5-7.7C-471.3,426.7-446.9,412.7-438.8,407.9"/>
	<path class="st1" d="M-418.3,374.5c-9,1.2-10.3,28.3-10.4,33.9c3.1,0.7,7.6,2.7,9.6,5c-2.6-0.7-6.4-1.5-10.9-2.3
		c-3.9,7.6-6.1,12-15.5,18.5c9,4.2,22.7,7.8,32.2,7.7c6.5-0.1,7.2-11.3,9-16.5c2.7-8.1-0.6-17.5,0.7-22.6
		C-401.1,388.3-408.1,375.5-418.3,374.5"/>
	<path class="st2" d="M-419.1,413.4c-2.6-0.7-6.4-1.5-10.9-2.3c-0.3,0.7-0.7,1.3-1,2C-426.9,413.1-423,413.4-419.1,413.4
		 M-418.3,374.5c-1.1,0.1-2.2,0.7-3.1,1.6c2.3,0.9,4.4,1.7,6.2,2.4c7.1,2.9,10.4,12.5,9.1,17.1c-1.5,5.1,1.7,16.6,0.4,23.3
		c-0.5,2.8-1,7.4-1.2,11.7c1.1-3.4,1.8-7.3,2.6-9.8c2.7-8.1-0.6-17.5,0.7-22.6C-401.1,388.3-408.1,375.5-418.3,374.5z"/>
	<path class="st1" d="M-450.3,402.8l0.1-22.6c4-0.3,9.8,1.8,14,7.3l4.4-17.8c4.1,1.6,9.1,3.9,13.6,4.8c-1.7-0.1-0.6,6.7-2.3,6.8
		c-4.8,0.3-8.8,10.1-10.8,18c-3.6,0.4-8.1,0.9-10.8,2.5c-0.4,0.1-1.6-0.6-2.8-0.5C-446.1,401.4-448.4,402.4-450.3,402.8"/>
	<path class="st2" d="M-432.3,371.8l0.5-2.1c4.1,1.6,9.1,3.9,13.6,4.8c-0.7,0-0.9,1.1-1.1,2.4C-423.1,375.5-427.7,373.8-432.3,371.8
		"/>
	<path class="st0" d="M-441.5,404.6c-1.2-0.2-1.4,0-1.5-1.3c-0.1-1.3-2.7-1.6-1.4-2c1.9-0.5,7.3-1.8,9.3-2.1c1-0.1,3.9-0.4,5-0.5
		c1.4-0.1,0.6,1.2,0.9,2.5c0.1,0.4,0.1,0.8,0.1,1.2c0,0.9-0.1,1.8-0.3,2.6c-0.5,2.4-1.4,4.8-2.7,6.9c-0.6,0.9-1.5,1.4-2.6,1.2
		c-1.1-0.1-1.9-0.9-2.2-1.9c-0.3-1-0.8-1.9-1.3-2.8C-438.6,407.9-440.7,405-441.5,404.6"/>
	<path class="st4" d="M-440.4,403.1c1.8,0.1,5.1,4.5,6,7.6c2.5-4.1,2.9-9,2.4-9C-435.1,401.9-435.7,401.8-440.4,403.1"/>
	<path class="st0" d="M-478.2,408.7c-0.6,0.2-1.3,0.3-1.9,0.5l-2.1,0.6l-0.6-2.1c0-0.2-0.1-0.3-0.1-0.5l-0.6,0.2l-0.9-0.7
		c-1.5-1.2-2.3-3-2.5-4.9l-0.1-1.3l1.1-0.8c0.5-0.4,1.2-0.7,1.9-1c-0.6-2-0.6-4.6-0.2-4.7c5.3-0.9,12.1-0.9,16,3.1
		c0.9,1,1.8,2,2.7,3c1.4,1.6,2.7,3.1,4.1,4.7l2.5,2.8l-3.6,0.9c-1.8,0.4-3.6,0.8-5.4,1c-1.4,0.2-2.7,0.3-4.1,0.4
		c-1.1,0.1-2.1,0.3-3.1,0.6l-2,0.6l-0.8-1.9C-478.1,409.1-478.1,408.9-478.2,408.7"/>
	<path class="st3" d="M-463.2,406.5c-4.5-5.1-6.6-7.7-8-8.9c-2.2-1.9-8.1-2-10.8-1.5c-0.3,0.1-0.2,2.3,0.6,3.1c1.2,0,4.3,0,5.4,0.4
		c-2.5-0.3-6.9,0.8-8.7,2.2c0.1,1.2,0.6,2.6,1.7,3.4c0.3-0.1,1-0.3,1.6-0.4c0.1,0.6,0.5,1.7,0.8,2.6c1.6-0.5,2.8-0.8,4.1-1
		c0,0,0.4,1.6,0.7,2.4C-471.9,407.4-468.9,407.9-463.2,406.5"/>
	<path class="st4" d="M-463.2,406.5c-4.5-5.1-6.6-7.7-8-8.9l-0.1-0.1c-0.1,1.7-0.7,5.8-0.7,6.8c0,0.1,1.7,0.3,1.8,0.5
		c0.2,1.2,0.3,2.1,0.4,2.8C-468,407.4-465.9,407.1-463.2,406.5"/>
	<path class="st0" d="M-447.5,408.7c1.7,1.8,7,9.7,3.6,16.8l4.1-2.1C-439.7,419-441.9,411.4-447.5,408.7"/>
	<polygon class="st0" points="-456,384.6 -457.2,378.8 -455.2,378 -448.1,378 -445.7,379 -446.8,384.6 -445.2,403.2 -457.7,407.5 	
		"/>
	<path class="st5" d="M-453.9,385.8l-1.4,19l7.6-2.8l-1.3-16.2C-450.7,385.6-452.2,385.6-453.9,385.8 M-453.9,383.9l-0.7-3.6h6.3
		l-0.7,3.6C-450.7,384-452.2,384-453.9,383.9z"/>
	<path class="st6" d="M-451.4,403.4v-17.7c0.8,0,1.6,0.1,2.4,0.1l1.4,16.2L-451.4,403.4z M-451.4,380.3h3.2l-0.8,3.6
		c-0.9,0-1.6,0-2.4,0V380.3z"/>
	<path class="st7" d="M-455.7,351c3.9,0.3,5.7,0.3,8.8-0.1c0.9-0.1-1.3,1.4-4.5,1.4c-1.2,0-2.7-0.3-3.7-0.7
		C-455.9,351.2-456.3,350.9-455.7,351"/>
	<path class="st0" d="M-443,380.6l4,2.8l-0.4,4.2c-2.1-2.6-5-5.2-8.1-5.8l0.2-2.3L-443,380.6z"/>
	<path class="st0" d="M-461,380.1l-3.6,3.3l0.9,4.1c1.8-2.8,4.3-5.8,7.3-6.8l-0.5-2.3L-461,380.1z"/>
	<path class="st4" d="M-462.4,330.1c1.5,0.2,2.6-1.3,4.5-0.9c2,0.4,2.6,2.1,2.7,4.1c0.1,4-2.8,4.7-4.4,3.3c-1.1-0.9-3.4-3.4-6.1-4.7
		C-465.9,330.5-462.9,330-462.4,330.1"/>
	<path class="st0" d="M-455.4,332.1c0.2-2.4-2.6-3.3-5.2-3.2c-1.9,0-6,1.2-5.9,3.2c0.1,0.6,3.1-0.6,6.1-0.4
		C-457.9,331.7-455.5,332.9-455.4,332.1"/>
	<path class="st0" d="M-459.8,333.5c1.1,0,1.9,0.9,1.9,1.9c0,1.1-0.9,1.9-1.9,1.9c-1.1,0-1.9-0.9-1.9-1.9S-460.9,333.5-459.8,333.5"
		/>
	<polygon class="st0" points="-451.2,427.8 -459.5,431.4 -460.2,441.2 -451.2,447.4 -442.2,441.2 -442.9,431.4 	"/>
	<polygon class="st8" points="-451.7,429 -457.1,431.8 -457.9,440.2 -451.3,444.4 -444.5,439.7 -444.9,432.8 	"/>
</g>
</svg>
